<svg width="57" height="98" viewBox="0 0 57 98" fill="none" xmlns="http://www.w3.org/2000/svg">
<path d="M12.2014 94.9432V17.5721C12.2014 13.2281 15.7223 9.70718 20.0653 9.70718H53.9298C53.659 5.5728 50.2271 2.35813 46.0841 2.35718H10.2653C5.92229 2.35718 2.40137 5.8781 2.40137 10.2221V87.5932C2.40137 91.9363 5.92229 95.4572 10.2653 95.4572H12.2196C12.209 95.2868 12.2014 95.1155 12.2014 94.9432Z" fill="#EAEAEA"/>
<path d="M32.9696 88.9015H23.3802C22.0269 88.9015 20.9302 87.8048 20.9302 86.4515C20.9302 85.0983 22.0269 84.0015 23.3802 84.0015H32.9696C34.3229 84.0015 35.4196 85.0983 35.4196 86.4515C35.4196 87.8048 34.3229 88.9015 32.9696 88.9015Z" fill="#FF6600"/>
<path d="M56.35 10.3149C56.35 4.61768 51.7323 0 46.0351 0H10.3149C4.61768 0 0 4.61768 0 10.3149V87.6851C0 93.3823 4.61768 98 10.3149 98H46.0351C51.7323 98 56.35 93.3823 56.35 87.6851V10.3149ZM4.9 17.64H51.45V74.97H4.9V17.64ZM10.2651 4.9H46.0849C49.0115 4.86363 51.4136 7.20836 51.45 10.135V10.2221V12.74H4.9V10.2221C4.88852 7.29449 7.25143 4.91148 10.179 4.9H10.2651ZM46.0849 93.1H10.2651C7.28014 93.1 4.9 90.5782 4.9 87.5932V79.87H51.45V87.5932C51.45 90.5782 49.0699 93.1 46.0849 93.1Z" fill="#C4C4C4"/>
</svg>
