<svg width="94" height="94" viewBox="0 0 94 94" fill="none" xmlns="http://www.w3.org/2000/svg">
<path d="M11.8769 52.7345C11.8726 37.0824 20.1965 22.6104 33.7269 14.7432C47.2573 6.87592 63.9523 6.80039 77.5531 14.5458C65.3153 2.72084 47.3483 -0.974179 31.437 5.06317C15.5265 11.1005 4.53239 25.7836 3.21917 42.7507C1.90596 59.7177 10.5097 75.9175 25.3018 84.3315C16.7058 76.0702 11.8563 64.6564 11.8769 52.7345Z" fill="#EAEAEA"/>
<path d="M63.095 34.6946L42.2209 54.646L31.0148 43.4399C30.16 42.5841 28.7729 42.5841 27.9172 43.4399C27.0615 44.2956 27.0615 45.6826 27.9172 46.5384L40.6391 59.2602C41.051 59.6757 41.6141 59.9057 42.1995 59.898C42.7668 59.9031 43.3127 59.6817 43.7152 59.2826L66.1497 37.8591C66.5694 37.4575 66.8132 36.9047 66.8252 36.3236C66.8372 35.7426 66.6184 35.1804 66.2158 34.7607C65.3704 33.886 63.9773 33.856 63.095 34.6946Z" fill="#FF6600"/>
<path d="M47.0333 0C21.5888 0 0.890625 20.6981 0.890625 46.1427C0.890625 71.5873 21.5888 92.2854 47.0333 92.2854C52.2974 92.2846 57.5227 91.3782 62.4803 89.6049L87.4194 93.9772C87.543 93.9952 87.6674 94.0021 87.7927 93.9995C88.5275 93.9943 89.2115 93.6244 89.6175 93.0116C90.0235 92.3979 90.0973 91.6237 89.8141 90.9448L83.0248 74.9708C89.6124 66.8091 93.1967 56.6313 93.1761 46.1427C93.1761 20.6981 72.4779 0 47.0333 0V0ZM85.9251 61.3477C84.2265 65.6572 81.8206 69.6527 78.8054 73.1692C78.2586 73.8 78.1222 74.6884 78.4543 75.454L84.1887 88.9457L62.6554 85.1881C62.5318 85.17 62.4074 85.1623 62.2821 85.1666C62.0203 85.1658 61.7602 85.2104 61.513 85.2979C56.8807 87.024 51.9772 87.9098 47.0333 87.9132C24.0058 87.9132 5.28517 69.1918 5.28517 46.165C5.28517 23.1374 24.0058 4.41686 47.0333 4.41686C70.0609 4.41686 88.7815 23.1374 88.7815 46.165C88.797 51.3604 87.8279 56.5128 85.9251 61.3477Z" fill="#C4C4C4"/>
</svg>
