<svg width="15" height="18" viewBox="0 0 15 18" fill="none" xmlns="http://www.w3.org/2000/svg">
<path d="M0.287973 8.17551L0.877582 8.76527C1.0627 8.95068 1.31017 9.05327 1.57358 9.05327C1.83729 9.05327 2.10714 8.95068 2.29226 8.76527L6.10431 4.9759L6.10431 17.015C6.10431 17.5579 6.5006 18 7.04338 18L7.87768 18C8.42031 18 8.91685 17.5579 8.91685 17.015L8.91685 4.93302L12.7213 8.76527C12.9067 8.95068 13.14 9.05327 13.4037 9.05327C13.6671 9.05327 13.9077 8.95068 14.0929 8.76527L14.6793 8.17551C15.063 7.79166 15.0614 7.16722 14.6777 6.78337L8.18104 0.287414C7.99607 0.102439 7.74787 -6.31056e-07 7.48226 -6.54276e-07L7.47948 -6.54519e-07C7.21592 -6.7756e-07 6.96831 0.102439 6.78334 0.287414L0.287973 6.78322C-0.0960264 7.16693 -0.0960265 7.79166 0.287973 8.17551Z" fill="#EC681C"/>
</svg>
