<svg width="70" height="48" viewBox="0 0 70 48" fill="none" xmlns="http://www.w3.org/2000/svg">
<path d="M38.4814 4.5131L43.5625 2.13696V5.78336L38.4814 8.1595V4.5131Z" fill="#EAEAEA"/>
<path d="M14.5259 14.1523L14.765 14.1074C18.4712 13.3453 22.1026 12.1497 25.5398 10.5507L37.286 5.06616V8.71256L25.7938 14.0775C22.3118 15.6915 18.6505 16.902 14.8845 17.6791L14.5259 17.7538V14.1523Z" fill="#EAEAEA"/>
<path d="M3.43708 28.7229C2.42087 28.155 1.79321 27.079 1.79321 25.9283V18.3217C1.79321 16.5583 3.22786 15.1236 4.99128 15.1236C7.66631 15.1236 10.3563 14.8995 12.9865 14.4511L13.3302 14.3914V18.2171L13.0761 18.247C10.8943 18.5459 8.68252 18.6953 6.48571 18.6953C5.05106 18.6953 3.88541 19.861 3.88541 21.2956V28.962L3.43708 28.7229Z" fill="#EAEAEA"/>
<path d="M6.32142 47.8366C5.66387 47.8366 5.12588 47.2986 5.12588 46.641V30.9197C5.08105 30.9197 5.03622 30.9197 4.99138 30.9197C2.24164 30.9197 0 28.678 0 25.9283V18.3217C0 15.5719 2.24164 13.3303 4.99138 13.3303C11.7761 13.3153 18.6205 11.806 24.7776 8.93667L43.6522 0.119553C43.8166 0.0448321 43.981 0 44.1603 0C44.8178 0 45.3558 0.537993 45.3558 1.19554V13.4199C49.1965 14.0327 52.2003 17.1112 52.6935 20.9817C52.9923 23.313 52.3647 25.6145 50.93 27.4825C49.5402 29.2758 47.5676 30.4415 45.3558 30.8001V43.0245C45.3558 43.2038 45.311 43.3682 45.2512 43.5326C45.0569 43.9511 44.6236 44.2201 44.1603 44.2201C43.981 44.2201 43.8166 44.1752 43.6522 44.1005L24.7776 35.2983C21.6841 33.8637 18.4412 32.7578 15.1236 32.0255V39.0344C15.1086 43.8913 11.1634 47.8366 6.32142 47.8366ZM7.51696 45.3409C10.5058 44.773 12.7325 42.1129 12.7325 39.0494V31.5772C11.0139 31.2933 9.26544 31.099 7.51696 30.9944V45.3409ZM42.9647 41.1565V3.07852L39.0792 4.88677V39.3333L42.9647 41.1565ZM15.1236 29.5896C18.7999 30.3667 22.3865 31.5623 25.7938 33.1464L36.6882 38.2274V6.00759L25.7938 11.0886C22.3865 12.6727 18.7999 13.8683 15.1236 14.6454V29.5896ZM12.7325 15.0937C10.177 15.4972 7.57674 15.7064 4.99138 15.7064C3.55673 15.7064 2.39108 16.8721 2.39108 18.3067V25.9133C2.39108 27.348 3.55673 28.5136 4.99138 28.5286C7.57674 28.5286 10.177 28.7378 12.7325 29.1413V15.0937ZM45.3558 28.3791C48.2849 27.7365 50.3771 25.1512 50.3771 22.1175C50.3771 19.0838 48.2849 16.5134 45.3558 15.8559V28.3791Z" fill="#999999"/>
<path d="M51.737 37.0469C51.2588 37.0469 50.8254 36.7629 50.6311 36.3146C50.5116 36.0157 50.4966 35.7019 50.6162 35.403C50.7358 35.1041 50.9599 34.8799 51.2588 34.7454C54.5316 33.3556 57.117 30.7703 58.5068 27.4975C59.9414 24.1201 59.9713 20.399 58.6114 16.9917C57.2365 13.5993 54.6362 10.9243 51.2588 9.48965C50.9599 9.37009 50.7358 9.13099 50.6162 8.8321C50.4966 8.53322 50.4966 8.20444 50.6311 7.9205C50.8254 7.47217 51.2439 7.18823 51.737 7.18823C51.9014 7.18823 52.0508 7.21812 52.2003 7.2779C58.1631 9.80348 62.0037 15.6317 62.0037 22.1026C62.0037 28.5735 58.1631 34.4017 52.2003 36.9273C52.0658 37.002 51.9014 37.0469 51.737 37.0469Z" fill="#FF6600"/>
<path d="M54.9499 44.235C54.4717 44.235 54.0383 43.9511 53.8441 43.5027C53.7245 43.2039 53.7096 42.89 53.8291 42.5911C53.9487 42.2923 54.1728 42.0681 54.4717 41.9336C59.6126 39.7368 63.6624 35.7018 65.8593 30.5461C68.1158 25.2558 68.1756 19.3976 66.0236 14.0625C63.8717 8.72745 59.7769 4.54305 54.4867 2.30142C54.1878 2.18186 53.9636 1.94275 53.8441 1.64387C53.7245 1.34498 53.7245 1.01621 53.859 0.732269C54.0533 0.283941 54.4717 0 54.9649 0C55.1293 0 55.2787 0.0298883 55.4282 0.0896653C61.1518 2.52558 65.6351 7.00886 68.071 12.7325C70.5816 18.6056 70.6414 25.1213 68.2503 31.0392C65.8593 36.9721 61.3013 41.6048 55.4282 44.1155C55.2787 44.2051 55.1143 44.235 54.9499 44.235Z" fill="#FF6600"/>
</svg>
