<svg width="12" height="14" viewBox="0 0 12 14" fill="none" xmlns="http://www.w3.org/2000/svg">
<path d="M11.4165 7.64127L10.9579 7.18257C10.8139 7.03836 10.6214 6.95857 10.4166 6.95857C10.2115 6.95857 10.0016 7.03836 9.85759 7.18257L6.89267 10.1299V0.76613C6.89267 0.343854 6.58444 0 6.16228 0H5.51338C5.09133 0 4.70514 0.343854 4.70514 0.76613V10.1632L1.74613 7.18257C1.60192 7.03836 1.42049 6.95857 1.21538 6.95857C1.0105 6.95857 0.823383 7.03836 0.679285 7.18257L0.223204 7.64127C-0.0752347 7.93982 -0.0739828 8.4255 0.224456 8.72405L5.27743 13.7765C5.4213 13.9203 5.61434 14 5.82093 14H5.82309C6.02808 14 6.22067 13.9203 6.36454 13.7765L11.4165 8.72416C11.7152 8.42572 11.7152 7.93982 11.4165 7.64127Z" fill="#EC681C"/>
</svg>
