<svg width="70" height="64" viewBox="0 0 70 64" fill="none" xmlns="http://www.w3.org/2000/svg">
<path d="M5.24169 54.2114V39.0921L2.15796 37.6592V54.2114L17.003 61.1863V59.7374L5.24169 54.2114Z" fill="#EAEAEA"/>
<path d="M22.1589 27.3471V12.2515L19.0752 10.8027V27.3471L33.9203 34.3221V32.8731L22.1589 27.3471Z" fill="#EAEAEA"/>
<path d="M38.0833 53.8203C37.8212 53.7989 37.9891 42.6365 38.0579 38.6188L34.9996 37.1978C34.9996 37.1978 34.6803 53.7942 34.9996 53.8203C35.3189 53.7941 50.8376 61.1863 50.8376 61.1863V59.7215C46.2948 57.568 38.3114 53.8016 38.0833 53.8203Z" fill="#EAEAEA"/>
<path d="M69.9891 35.7973C69.9891 35.7912 69.9869 35.7852 69.986 35.7789C69.9795 35.7383 69.9708 35.698 69.9599 35.6583C69.957 35.6475 69.9541 35.6367 69.9508 35.626C69.9374 35.5812 69.9213 35.5372 69.9024 35.4945C69.883 35.4519 69.8609 35.4107 69.8363 35.371C69.8307 35.3619 69.8248 35.3532 69.819 35.3444C69.797 35.3103 69.773 35.2775 69.7473 35.2462C69.7433 35.2413 69.7397 35.2363 69.7357 35.2315C69.7049 35.1954 69.6718 35.1614 69.6367 35.1297L69.6213 35.117C69.5899 35.0897 69.5569 35.0643 69.5226 35.0409C69.5155 35.036 69.5086 35.0309 69.5015 35.0262C69.4622 35.0007 69.4213 34.9778 69.3792 34.9575C69.3771 34.9565 69.3751 34.9553 69.3731 34.954L52.3696 26.9658C52.2407 26.904 52.1011 26.8688 51.9588 26.8621C51.8165 26.8554 51.6743 26.8774 51.5404 26.9269C51.4065 26.9765 51.2835 27.0524 51.1786 27.1505C51.0738 27.2486 50.989 27.3668 50.9293 27.4983C50.8695 27.6299 50.836 27.7721 50.8305 27.917C50.8251 28.0618 50.8479 28.2062 50.8977 28.342C50.9474 28.4778 51.0231 28.6022 51.1204 28.7081C51.2176 28.814 51.3345 28.8993 51.4643 28.959L66.3351 35.946L51.917 42.6457L35.854 35.1806C35.6166 34.9722 35.3134 34.8574 34.9998 34.8574C34.6861 34.8574 34.3829 34.9722 34.1455 35.1806L18.0824 42.6449L3.66424 35.9452L18.5351 28.9576C18.6649 28.8978 18.7818 28.8126 18.879 28.7067C18.9763 28.6008 19.052 28.4764 19.1017 28.3406C19.1514 28.2048 19.1743 28.0603 19.1688 27.9155C19.1634 27.7707 19.1299 27.6285 19.0701 27.4969C19.0104 27.3654 18.9256 27.2471 18.8207 27.1491C18.7158 27.051 18.5929 26.975 18.459 26.9255C18.3251 26.876 18.1829 26.854 18.0406 26.8607C17.8983 26.8673 17.7587 26.9026 17.6298 26.9644L0.625997 34.954C0.62353 34.9553 0.621217 34.957 0.618596 34.9583C0.577335 34.9782 0.537324 35.0006 0.498793 35.0255C0.490621 35.0309 0.483374 35.0367 0.47474 35.0422C0.441585 35.065 0.409673 35.0896 0.379144 35.1159C0.373594 35.1207 0.36758 35.1253 0.362184 35.1303C0.327325 35.1617 0.294564 35.1953 0.264121 35.2311C0.25965 35.2363 0.255795 35.2418 0.251324 35.2468C0.225983 35.2777 0.202356 35.31 0.180552 35.3436C0.174693 35.3527 0.16868 35.3616 0.162975 35.3709C0.113275 35.4499 0.0747614 35.5357 0.0485688 35.6257C0.0453309 35.6364 0.0424013 35.6472 0.0394718 35.658C0.0285543 35.6977 0.0198545 35.738 0.0134142 35.7786C0.0124891 35.7849 0.0111013 35.7909 0.0103304 35.797C0.00367561 35.8449 0.000224277 35.8932 0 35.9416V35.9504V54.9137C1.5262e-05 55.1233 0.0590307 55.3285 0.170071 55.5051C0.281111 55.6817 0.439534 55.8222 0.626614 55.9101L17.6298 63.8988C17.7717 63.9655 17.9261 64 18.0824 64C18.2387 64 18.3932 63.9655 18.5351 63.8988L34.9997 56.1634L51.4643 63.8988C51.6062 63.9655 51.7607 64 51.9169 64C52.0732 64 52.2277 63.9655 52.3696 63.8988L69.3734 55.9097C69.5604 55.8218 69.7188 55.6813 69.8298 55.5048C69.9408 55.3283 69.9999 55.1232 70 54.9137V35.9507C70 35.9477 70 35.9449 70 35.9419C69.9996 35.8935 69.9959 35.8452 69.9891 35.7973ZM35.8588 54.1487C35.621 53.937 35.3158 53.8204 34.9998 53.8204C34.6838 53.8204 34.3785 53.937 34.1407 54.1487L19.1617 61.1857V44.5574L34.9997 37.1978L50.8377 44.5574V61.1857L35.8588 54.1487ZM2.15799 37.6591L17.0031 44.5574V61.1857L2.15799 54.2114V37.6591ZM52.9963 61.1857V44.5574L67.8414 37.6591V54.2114L52.9963 61.1857Z" fill="#999999"/>
<path d="M53.0717 8.93205C53.0717 8.92656 53.0696 8.92123 53.0688 8.91637C53.0623 8.87549 53.0536 8.83502 53.0427 8.79514C53.0395 8.78353 53.0363 8.77177 53.0327 8.76017C53.0203 8.71968 53.0057 8.67993 52.9889 8.64113C52.9872 8.63706 52.9858 8.63282 52.9841 8.6289L52.9832 8.62655C52.9641 8.58532 52.9425 8.54531 52.9186 8.50673C52.9131 8.49748 52.9069 8.48854 52.901 8.4796C52.8796 8.44699 52.8564 8.41558 52.8316 8.3855C52.8267 8.37939 52.8221 8.37311 52.817 8.36716C52.7864 8.33134 52.7536 8.2976 52.7186 8.26616C52.7143 8.26208 52.7094 8.25863 52.7049 8.25455C52.6735 8.22729 52.6405 8.2019 52.6062 8.17849C52.5985 8.17316 52.5908 8.16767 52.5829 8.16281C52.5438 8.13738 52.5031 8.11449 52.4611 8.09428C52.4593 8.09428 52.4579 8.09239 52.4561 8.09145L35.4524 0.101229C35.3105 0.0345394 35.156 0 34.9997 0C34.8434 0 34.6889 0.0345394 34.547 0.101229L17.5433 8.0902C17.5418 8.09098 17.5405 8.09208 17.539 8.09271C17.4965 8.11309 17.4553 8.13624 17.4157 8.16202C17.4084 8.16673 17.4013 8.1719 17.3941 8.17677C17.359 8.20085 17.3254 8.22704 17.2934 8.25518L17.281 8.26537C17.246 8.29703 17.213 8.33098 17.1822 8.367C17.1773 8.3728 17.173 8.37876 17.1682 8.38456C17.1432 8.41515 17.1198 8.44708 17.0982 8.48023C17.0923 8.48917 17.0863 8.49795 17.0808 8.5072C17.0568 8.54574 17.0352 8.58576 17.0162 8.62702L17.0152 8.62937C17.0135 8.63329 17.0122 8.63753 17.0105 8.6416C16.9936 8.6804 16.979 8.72015 16.9667 8.76064C16.9631 8.77224 16.9599 8.784 16.9566 8.79561C16.9457 8.83549 16.937 8.87596 16.9306 8.91684C16.9306 8.92233 16.9284 8.92766 16.9277 8.93252C16.9211 8.98012 16.9177 9.02811 16.9175 9.07617V9.08684V28.0494C16.9175 28.259 16.9765 28.4642 17.0875 28.6408C17.1986 28.8174 17.357 28.9579 17.5441 29.0458L33.9204 36.7404V55.0013C33.9204 55.2925 34.0341 55.5717 34.2365 55.7776C34.4389 55.9835 34.7134 56.0991 34.9997 56.0991C35.2859 56.0991 35.5605 55.9835 35.7629 55.7776C35.9653 55.5717 36.079 55.2925 36.079 55.0013V36.7404L52.4561 29.0458C52.6431 28.9579 52.8016 28.8174 52.9126 28.6408C53.0236 28.4642 53.0826 28.259 53.0827 28.0494V9.08637C53.0827 9.08276 53.0827 9.07931 53.0827 9.0757C53.0822 9.02762 53.0785 8.97963 53.0717 8.93205ZM34.9997 2.30654L49.4297 9.08637L34.9997 15.8662L20.5697 9.08637L34.9997 2.30654ZM19.0753 27.3471V10.8027L33.9204 17.7775V34.322L19.0753 27.3471ZM36.079 34.322V17.7775L50.9241 10.8027V27.3471L36.079 34.322Z" fill="#FF6600"/>
</svg>
