<svg width="28" height="28" viewBox="0 0 28 28" fill="none" xmlns="http://www.w3.org/2000/svg">
<g id="Icon/Fill/menu">
<path id="Mask" fill-rule="evenodd" clip-rule="evenodd" d="M4.60624 7H23.3931C24.0021 7 24.5002 7.49817 24.5002 8.10717V8.22617C24.5002 8.83517 24.0021 9.33333 23.3931 9.33333H4.60624C3.99724 9.33333 3.50024 8.83517 3.50024 8.22617V8.10717C3.50024 7.49817 3.99724 7 4.60624 7ZM23.3931 12.8333H4.60624C3.99724 12.8333 3.50024 13.3315 3.50024 13.9405V14.0595C3.50024 14.6685 3.99724 15.1667 4.60624 15.1667H23.3931C24.0021 15.1667 24.5002 14.6685 24.5002 14.0595V13.9405C24.5002 13.3315 24.0021 12.8333 23.3931 12.8333ZM23.3931 18.6667H4.60624C3.99724 18.6667 3.50024 19.1648 3.50024 19.7738V19.8928C3.50024 20.5018 3.99724 21 4.60624 21H23.3931C24.0021 21 24.5002 20.5018 24.5002 19.8928V19.7738C24.5002 19.1648 24.0021 18.6667 23.3931 18.6667Z" fill="#5F5F6E"/>
<mask id="mask0" mask-type="alpha" maskUnits="userSpaceOnUse" x="3" y="7" width="22" height="14">
<path id="Mask_2" fill-rule="evenodd" clip-rule="evenodd" d="M4.60624 7H23.3931C24.0021 7 24.5002 7.49817 24.5002 8.10717V8.22617C24.5002 8.83517 24.0021 9.33333 23.3931 9.33333H4.60624C3.99724 9.33333 3.50024 8.83517 3.50024 8.22617V8.10717C3.50024 7.49817 3.99724 7 4.60624 7ZM23.3931 12.8333H4.60624C3.99724 12.8333 3.50024 13.3315 3.50024 13.9405V14.0595C3.50024 14.6685 3.99724 15.1667 4.60624 15.1667H23.3931C24.0021 15.1667 24.5002 14.6685 24.5002 14.0595V13.9405C24.5002 13.3315 24.0021 12.8333 23.3931 12.8333ZM23.3931 18.6667H4.60624C3.99724 18.6667 3.50024 19.1648 3.50024 19.7738V19.8928C3.50024 20.5018 3.99724 21 4.60624 21H23.3931C24.0021 21 24.5002 20.5018 24.5002 19.8928V19.7738C24.5002 19.1648 24.0021 18.6667 23.3931 18.6667Z" fill="white"/>
</mask>
<g mask="url(#mask0)">
<g id="&#240;&#159;&#142;&#168; Color">
<rect id="Base" width="28" height="28" fill="#5F5F6E"/>
</g>
</g>
</g>
</svg>
