<svg width="46" height="70" viewBox="0 0 46 70" fill="none" xmlns="http://www.w3.org/2000/svg">
<path d="M6.47589 47.4889C6.47589 36.8785 14.5164 28.1116 24.8239 26.9582C24.056 26.8721 23.2839 26.8287 22.5111 26.8281C11.1189 26.8281 1.85034 36.0967 1.85034 47.4889C1.85034 58.8811 11.1189 68.1497 22.5111 68.1497C23.2839 68.1491 24.056 68.1057 24.8239 68.0196C14.5164 66.8662 6.47589 58.0994 6.47589 47.4889Z" fill="#EAEAEA"/>
<path d="M22.511 0C13.0636 0.0108411 5.40733 7.66709 5.39648 17.1145V32.883C1.90986 36.9502 -0.00480921 42.1317 9.07182e-06 47.489C9.07182e-06 59.9015 10.0991 70 22.511 70C34.9229 70 45.022 59.9015 45.022 47.489C45.0269 42.1317 43.1122 36.9502 39.6256 32.883V17.1145C39.6147 7.66709 31.9585 0.0108411 22.511 0ZM22.511 1.85022C30.9376 1.85986 37.7657 8.68796 37.7753 17.1145V30.9605C36.9087 30.1594 35.9805 29.4277 35 28.7712V17.1145C35 10.2172 29.4084 4.62555 22.511 4.62555C15.6137 4.62555 10.022 10.2172 10.022 17.1145V28.7694C9.04152 29.4259 8.11339 30.1582 7.24671 30.9587V17.1145C7.25634 8.68796 14.0845 1.85986 22.511 1.85022ZM33.1498 27.6551C26.5066 24.0854 18.5155 24.0854 11.8723 27.6551V17.1145C11.8723 11.2386 16.6351 6.47577 22.511 6.47577C28.3869 6.47577 33.1498 11.2386 33.1498 17.1145V27.6551ZM22.511 68.1498C11.1188 68.1498 1.85023 58.8812 1.85023 47.489C1.85023 36.0968 11.1188 26.8282 22.511 26.8282C33.9032 26.8282 43.1718 36.0968 43.1718 47.489C43.1718 58.8812 33.9032 68.1498 22.511 68.1498Z" fill="#999999"/>
<path d="M25.7074 63.0214C24.6552 63.2364 23.5843 63.3442 22.511 63.3436C22.0003 63.3436 21.5859 63.758 21.5859 64.2687C21.5859 64.7801 22.0003 65.1938 22.511 65.1938C23.709 65.1944 24.9045 65.074 26.0784 64.8343C26.5789 64.7319 26.9017 64.2428 26.7993 63.7423C26.6963 63.2418 26.2079 62.919 25.7074 63.0214Z" fill="#999999"/>
<path d="M28.8291 62.0355C28.5177 62.1619 28.2997 62.4468 28.2593 62.7805C28.2184 63.1136 28.3617 63.443 28.6334 63.6406C28.905 63.8381 29.2628 63.8724 29.5669 63.7315C36.0342 60.9206 40.2171 54.5406 40.2159 47.4891C40.2159 46.9783 39.8021 46.564 39.2908 46.564C38.7801 46.564 38.3657 46.9783 38.3657 47.4891C38.3669 53.804 34.6207 59.5179 28.8291 62.0355Z" fill="#999999"/>
<path d="M23.4362 30.7093C23.4362 30.1979 23.0218 29.7842 22.5111 29.7842C21.4336 29.7842 20.3579 29.8811 19.2979 30.0751C18.9666 30.1281 18.6896 30.3564 18.5745 30.6713C18.4595 30.9869 18.5246 31.3399 18.7438 31.5934C18.963 31.8476 19.3033 31.9626 19.6316 31.8946C20.582 31.7211 21.5456 31.6338 22.5111 31.6344C23.0218 31.6344 23.4362 31.22 23.4362 30.7093Z" fill="#999999"/>
<path d="M15.619 31.1761C9.0595 33.9412 4.79773 40.3706 4.80616 47.489C4.80616 47.9997 5.21993 48.4141 5.73128 48.4141C6.24201 48.4141 6.65639 47.9997 6.65639 47.489C6.64856 41.1138 10.4652 35.356 16.3399 32.88C16.6507 32.7553 16.8699 32.4728 16.9133 32.141C16.9567 31.8085 16.8169 31.479 16.5489 31.2791C16.2803 31.0791 15.9244 31.04 15.619 31.1761Z" fill="#999999"/>
<path d="M22.511 57.511C24.2392 57.5087 25.6396 56.1117 25.6419 54.3876V50.0898C27.3541 48.7561 28.0283 46.486 27.322 44.4378C26.615 42.3888 24.6826 41.0132 22.511 41.0132C20.3393 41.0132 18.407 42.3888 17.6999 44.4378C16.9936 46.486 17.6678 48.7561 19.38 50.0898V54.3876C19.3823 56.1117 20.7827 57.5087 22.511 57.511ZM22.511 43.358C23.75 43.3588 24.8339 44.1892 25.155 45.3834C25.476 46.5775 24.9532 47.8373 23.8807 48.4564C23.5177 48.6661 23.2937 49.052 23.2937 49.4706V54.3876C23.2937 54.8192 22.9436 55.1684 22.511 55.1684C22.0783 55.1684 21.7282 54.8192 21.7282 54.3876V49.4706C21.7282 49.052 21.5043 48.6661 21.1412 48.4564C20.0687 47.8373 19.5459 46.5775 19.8669 45.3834C20.188 44.1892 21.2719 43.3588 22.511 43.358Z" fill="#FF6600"/>
</svg>
