<svg width="67" height="65" viewBox="0 0 67 65" fill="none" xmlns="http://www.w3.org/2000/svg">
<path d="M35.6614 12.7801L35.6614 4.14877C35.6614 3.28514 36.3614 2.5852 37.225 2.58521C38.0886 2.58521 38.7886 3.28514 38.7886 4.14877L38.7886 12.7795C38.7886 13.6431 38.0886 14.3431 37.225 14.3431C36.3614 14.3431 35.6614 13.6431 35.6614 12.7795L35.6614 12.7801Z" fill="#999999"/>
<path d="M43.3231 2.15707L43.3231 16.7635C43.3231 17.6272 44.023 18.3271 44.8866 18.3271C45.7503 18.3271 46.4502 17.6272 46.4502 16.7635L46.4502 2.15707C46.4502 1.29344 45.7503 0.593506 44.8866 0.593506C44.023 0.593506 43.3231 1.29344 43.3231 2.15707Z" fill="#FF6600"/>
<path d="M31.1272 12.1239L31.1272 2.56356C31.1272 1.69994 30.4273 1 29.5636 1C28.7 1 28.0001 1.69994 28.0001 2.56356L28.0001 12.1239C28.0001 12.9875 28.7 13.6875 29.5636 13.6875C30.4273 13.6875 31.1272 12.9875 31.1272 12.1239Z" fill="#FF6600"/>
<path d="M7.60082 61.3488V33.3023V31H2V64H58V61.3488H7.60082Z" fill="#EAEAEA"/>
<path d="M6.786 25.6801L6.786 29.5348L2.05967 29.5348C0.922558 29.5348 -1.57251e-06 30.2874 -1.53049e-06 31.215L-7.61117e-08 63.3199C-3.40587e-08 64.2482 0.92256 65 2.05967 65L58.2014 65C59.3385 65 60.2611 64.2482 60.2611 63.3199C60.2611 62.3923 59.3385 62.6334 58.2014 62.6334L2.90115 62.6334L2.90115 31.9014L57.3137 31.9014L57.3137 63.3199C57.3137 64.2482 57.0172 65 58.1552 65C59.2923 65 60.2149 64.2482 60.2149 63.3199L60.2149 59.2807L64.9403 59.2807C66.0783 59.2807 67 58.5281 67 57.6005L67 25.6801C67 24.7518 66.0783 24 64.9403 24L8.84567 24C7.70766 24 6.786 24.7518 6.786 25.6801ZM64.0988 26.3666L64.0988 56.9141L60.2149 56.9141L60.2149 31.215C60.2149 30.2874 59.2923 29.5348 58.1552 29.5348L9.68715 29.5348L9.68715 26.3666L64.0988 26.3666Z" fill="#999999"/>
<path d="M39.8331 46.5102C39.8331 41.4746 35.7508 37.3922 30.7152 37.3922C25.6788 37.3929 21.5972 41.4746 21.5972 46.5109C21.5972 51.5465 25.6795 55.6289 30.7152 55.6282C35.7486 55.623 39.8273 51.5436 39.8331 46.5102ZM24.9787 46.5102C24.9787 43.3422 27.5472 40.7737 30.7152 40.7737C33.8832 40.7745 36.4516 43.3422 36.4516 46.5109C36.4516 49.6789 33.8832 52.2474 30.7152 52.2466C27.5486 52.243 24.9824 49.6767 24.9787 46.5102Z" fill="#FF6600"/>
</svg>
