<svg width="128" height="42" viewBox="0 0 128 42" fill="none" xmlns="http://www.w3.org/2000/svg">
<path fill-rule="evenodd" clip-rule="evenodd" d="M37.4527 25.9219H38.4808C39.7293 25.9219 40.6105 25.775 41.1246 25.4811C41.6386 25.1871 41.9324 24.6728 41.9324 23.938C41.9324 23.2032 41.6386 22.6889 41.1246 22.395C40.6105 22.101 39.7293 21.9541 38.4808 21.9541H37.4527V25.9219ZM37.4527 18.2801H38.334C39.8761 18.2801 40.6105 17.6923 40.6105 16.4432C40.6105 15.194 39.8761 14.6062 38.334 14.6062H37.4527V18.2801ZM32.5325 10.8588H39.8027C41.5652 10.8588 42.8136 11.2997 43.6948 12.1079C44.5761 12.9162 45.0167 14.1653 45.0167 15.6349C45.0167 16.5901 44.8698 17.3984 44.5026 17.9862C44.1355 18.6475 43.6214 19.1619 42.9605 19.5293C43.6948 19.6762 44.2089 19.8967 44.7964 20.1171C45.237 20.411 45.6776 20.7049 45.9714 21.1458C46.2651 21.5867 46.4854 22.0276 46.6323 22.4684C46.7792 22.9828 46.7792 23.4971 46.7792 24.0115C46.7792 24.8932 46.6323 25.628 46.3385 26.3628C46.0448 27.0976 45.6042 27.6119 45.0901 28.0528C44.5026 28.4937 43.8417 28.8611 43.0339 29.0815C42.2261 29.302 41.3449 29.4489 40.3168 29.4489H32.5325V10.8588Z" fill="#EC681C"/>
<path fill-rule="evenodd" clip-rule="evenodd" d="M53.0947 23.2032C53.0947 23.6441 53.1681 24.0115 53.315 24.3789C53.4618 24.7463 53.6822 25.0402 53.9759 25.3341C54.1962 25.628 54.5634 25.775 54.9306 25.9954C55.2978 26.1424 55.6649 26.2159 56.0321 26.2159C56.3993 26.2159 56.7665 26.1424 57.1337 25.9954C57.5009 25.8485 57.7946 25.628 58.0884 25.3341C58.3087 25.0402 58.529 24.7463 58.7493 24.3789C58.8962 24.0115 58.9696 23.6441 58.9696 23.2032C58.9696 22.7624 58.8962 22.4685 58.7493 22.1011C58.6024 21.7337 58.3821 21.4398 58.0884 21.1458C57.7946 20.8519 57.5009 20.705 57.1337 20.4845C56.7665 20.3376 56.3993 20.2641 56.0321 20.2641C55.6649 20.2641 55.2978 20.3376 54.9306 20.4845C54.5634 20.6315 54.2697 20.8519 53.9759 21.1458C53.7556 21.4398 53.5353 21.7337 53.315 22.1011C53.1681 22.4685 53.0947 22.8358 53.0947 23.2032ZM48.3213 23.1298C48.3213 22.1745 48.4682 21.2928 48.9088 20.4845C49.3494 19.6763 49.8635 18.9415 50.4509 18.3536C51.1853 17.7658 51.9931 17.2515 52.8744 16.8841C53.829 16.5167 54.8571 16.3697 55.9587 16.3697C57.0602 16.3697 58.0884 16.5167 58.9696 16.8841C59.9243 17.2515 60.7321 17.6923 61.393 18.2802C62.1274 18.868 62.6414 19.6028 63.0086 20.4111C63.4492 21.2193 63.5961 22.1745 63.5961 23.2032C63.5961 24.2319 63.4492 25.1137 63.0086 25.9954C62.568 26.8037 62.0539 27.5385 61.393 28.1263C60.6586 28.7141 59.8508 29.155 58.9696 29.5224C58.0149 29.8898 56.9868 30.0368 55.8853 30.0368C54.7837 30.0368 53.7556 29.8898 52.8744 29.5224C51.9197 29.155 51.1119 28.7141 50.4509 28.1263C49.7166 27.465 49.2025 26.8037 48.9088 25.922C48.5416 25.1137 48.3213 24.2319 48.3213 23.1298Z" fill="#EC681C"/>
<path fill-rule="evenodd" clip-rule="evenodd" d="M65.3586 16.8841H69.8383V19.015C70.2789 18.2802 70.8664 17.6923 71.6008 17.2515C72.3351 16.8106 73.1429 16.6636 74.0242 16.6636C74.171 16.6636 74.2445 16.6636 74.4648 16.6636C74.6117 16.6636 74.7585 16.6636 74.9054 16.7371V21.0724C74.3179 20.7784 73.657 20.6315 72.996 20.6315C71.9679 20.6315 71.1601 20.9254 70.6461 21.5867C70.132 22.248 69.9117 23.1298 69.9117 24.3054V29.8163H65.3586V16.8841Z" fill="#EC681C"/>
<path fill-rule="evenodd" clip-rule="evenodd" d="M81.2209 23.2032C81.2209 23.6441 81.2943 24.0115 81.4412 24.3789C81.5881 24.7463 81.8084 25.0402 82.1021 25.3341C82.3224 25.628 82.6896 25.775 83.0568 25.9954C83.424 26.1424 83.7912 26.2159 84.1584 26.2159C84.599 26.2159 84.8927 26.1424 85.2599 25.9954C85.6271 25.8485 85.9208 25.628 86.2146 25.3341C86.4349 25.0402 86.6552 24.7463 86.8755 24.3789C87.0224 24.0115 87.0958 23.6441 87.0958 23.2032C87.0958 22.7624 87.0224 22.4685 86.8755 22.1011C86.7286 21.7337 86.5083 21.4398 86.2146 21.1458C85.9943 20.8519 85.6271 20.705 85.2599 20.4845C84.8927 20.3376 84.5255 20.2641 84.1584 20.2641C83.7177 20.2641 83.424 20.3376 83.0568 20.4845C82.6896 20.6315 82.3959 20.8519 82.1021 21.1458C81.8818 21.4398 81.6615 21.7337 81.4412 22.1011C81.2943 22.4685 81.2209 22.8358 81.2209 23.2032ZM76.4475 23.1298C76.4475 22.1745 76.5944 21.2928 77.035 20.4845C77.4756 19.6763 77.9897 18.9415 78.5772 18.3536C79.2381 17.6923 80.1193 17.2515 81.0006 16.8841C81.9553 16.5167 82.9834 16.3697 84.0849 16.3697C85.1865 16.3697 86.2146 16.5167 87.0958 16.8841C88.0505 17.2515 88.8583 17.6923 89.5192 18.2802C90.2536 18.868 90.7676 19.6028 91.1348 20.4111C91.5754 21.2193 91.7223 22.1745 91.7223 23.2032C91.7223 24.2319 91.5754 25.1137 91.1348 25.9954C90.6942 26.8037 90.1802 27.5385 89.5192 28.1263C88.7849 28.7141 87.9771 29.155 87.0958 29.5224C86.1411 29.8898 85.113 30.0368 84.0115 30.0368C82.9099 30.0368 81.8818 29.8898 81.0006 29.5224C80.0459 29.155 79.2381 28.7141 78.5772 28.1263C77.8428 27.465 77.3288 26.8037 77.035 25.922C76.5944 25.1137 76.4475 24.2319 76.4475 23.1298Z" fill="#EC681C"/>
<path fill-rule="evenodd" clip-rule="evenodd" d="M123.741 21.3663C123.594 20.705 123.3 20.2641 122.786 19.8232C122.345 19.3823 121.758 19.2354 121.097 19.2354C120.363 19.2354 119.849 19.3823 119.408 19.7497C118.967 20.1171 118.674 20.6315 118.6 21.2928L123.741 21.3663ZM118.527 24.0115C118.527 25.9219 119.481 26.9507 121.244 26.9507C122.272 26.9507 122.933 26.5098 123.447 25.775H127.853C126.972 28.7141 124.769 30.1837 121.244 30.1837C120.142 30.1837 119.188 30.0368 118.233 29.7428C117.278 29.4489 116.544 29.0081 115.956 28.3467C115.295 27.7589 114.855 27.0976 114.488 26.2159C114.121 25.4076 113.974 24.4524 113.974 23.4237C113.974 22.395 114.121 21.3663 114.488 20.558C114.855 19.6763 115.295 19.0149 115.883 18.4271C116.544 17.8393 117.205 17.3984 118.086 17.031C118.967 16.6636 119.922 16.5901 121.097 16.5901C122.125 16.5901 123.153 16.7371 124.034 17.031C124.916 17.3984 125.577 17.8393 126.238 18.4271C126.898 19.0149 127.266 19.7497 127.559 20.705C127.853 21.5867 128 22.5419 128 23.7176V24.1585H118.527V24.0115Z" fill="#EC681C"/>
<path fill-rule="evenodd" clip-rule="evenodd" d="M5.65454 34.7394C4.40612 34.0046 1.10147 30.9185 5.65454 28.1263C9.1795 25.9954 15.3482 22.3215 17.9185 20.8519C18.6528 21.2193 19.02 21.4397 19.02 21.4397C20.2684 22.1745 21.0028 23.4237 21.0028 24.8932V39.3685C21.0028 41.132 19.0934 42.2342 17.5513 41.4259L5.65454 34.7394Z" fill="#FFE9B6"/>
<path fill-rule="evenodd" clip-rule="evenodd" d="M17.9185 20.8519C15.3483 22.395 9.25301 26.0689 5.65462 28.1263C1.10155 30.845 4.4062 34.0046 5.65462 34.7394L4.47963 34.0781L3.08434 33.3433C1.17499 32.2411 0 30.2572 0 28.0528V14.1653C0 12.0345 1.10155 10.0505 2.93746 9.02184L5.65462 7.4053" fill="#EC681C"/>
<path fill-rule="evenodd" clip-rule="evenodd" d="M17.9186 20.8519C15.2748 19.3823 8.51868 15.6349 5.65465 14.0184C2.05626 12.0345 2.9375 9.02185 5.65465 7.40532L17.4779 0.351357C19.0201 -0.603867 21.0029 0.498314 21.0029 2.33528V16.7371C21.0029 18.1332 20.2685 19.3823 19.0936 20.1171C19.167 20.1171 18.6529 20.4111 17.9186 20.8519Z" fill="#F5A792"/>
<path d="M98.405 12.0345H93.6316V29.6694H98.405V12.0345Z" fill="#EC681C"/>
<path d="M112.432 12.0345H107.585V29.6694H112.432V12.0345Z" fill="#EC681C"/>
<path fill-rule="evenodd" clip-rule="evenodd" d="M99.6536 12.0345L105.455 21.4397L103.032 25.3341L99.6536 19.8967V12.0345Z" fill="#FFE9B6"/>
<path fill-rule="evenodd" clip-rule="evenodd" d="M106.336 12.0345L100.608 21.3663L103.032 25.3341L106.336 19.8967V12.0345Z" fill="#EC681C"/>
</svg>
