<svg width="169" height="56" viewBox="0 0 169 56" fill="none" xmlns="http://www.w3.org/2000/svg">
<g clip-path="url(#clip0)">
<path d="M73.0001 11.7601C72.8273 11.7608 72.6572 11.8029 72.5041 11.883C72.3509 11.963 72.2193 12.0786 72.1201 12.2201C71.8708 12.558 71.7438 12.9706 71.7601 13.3901C71.7411 13.8255 71.8756 14.2537 72.1401 14.6001C72.2523 14.7422 72.3951 14.8574 72.5578 14.937C72.7205 15.0166 72.8989 15.0587 73.0801 15.0601C73.2533 15.0559 73.423 15.0112 73.5758 14.9295C73.7287 14.8479 73.8602 14.7317 73.9601 14.5901C74.2094 14.2523 74.3363 13.8397 74.3201 13.4201C74.3393 12.9878 74.2046 12.5626 73.9401 12.2201C73.8304 12.0751 73.6882 11.958 73.5249 11.8781C73.3616 11.7982 73.1818 11.7578 73.0001 11.7601Z" fill="#58595B"/>
<path d="M79.91 11.7801H79.49C79.49 12.2601 79.49 12.7801 79.49 13.2701C79.49 13.7601 79.49 14.3901 79.49 14.9501C79.6577 14.9851 79.8287 15.0019 80 15.0001C80.212 15.0155 80.4246 14.981 80.6208 14.8994C80.8171 14.8178 80.9915 14.6913 81.13 14.5301C81.3793 14.1956 81.5095 13.7872 81.5 13.3701C81.5089 12.9543 81.3668 12.5492 81.1 12.2301C80.9459 12.0736 80.7598 11.9523 80.5543 11.8746C80.3489 11.7969 80.1291 11.7647 79.91 11.7801Z" fill="#58595B"/>
<path d="M91.52 11.7401C91.3436 11.7263 91.1664 11.7263 90.99 11.7401C90.99 12.1901 90.99 12.7401 90.99 13.2601H91.19C92.06 13.2601 92.49 12.9801 92.49 12.4401C92.49 11.9001 92.19 11.7401 91.52 11.7401Z" fill="#58595B"/>
<path d="M86.9999 11.7302C86.9999 11.8202 86.7899 12.4802 86.3799 13.7302H87.6699C87.4296 13.0754 87.2259 12.4077 87.0599 11.7302H86.9999Z" fill="#58595B"/>
<path d="M53.4901 11.7302C53.4901 11.8169 53.2801 12.4836 52.8601 13.7302H54.1601C53.9198 13.0754 53.7161 12.4077 53.5501 11.7302H53.4901Z" fill="#58595B"/>
<path d="M67.9999 11.74C67.8036 11.723 67.6062 11.723 67.4099 11.74C67.4099 12.11 67.4099 12.59 67.4099 13.17H67.7399C68.4999 13.17 68.8699 12.91 68.8699 12.39C68.8699 11.87 68.6199 11.74 67.9999 11.74Z" fill="#58595B"/>
<path d="M62.93 11.7802H62.51C62.51 12.2602 62.51 12.7802 62.51 13.2702C62.51 13.7602 62.51 14.3902 62.51 14.9502C62.6663 14.965 62.8237 14.965 62.98 14.9502C63.1919 14.9648 63.4043 14.9299 63.6004 14.8483C63.7965 14.7668 63.971 14.6407 64.11 14.4802C64.3564 14.1447 64.4832 13.7362 64.47 13.3202C64.4836 12.9036 64.3409 12.4969 64.07 12.1802C63.9185 12.0376 63.7387 11.9283 63.5424 11.8594C63.346 11.7905 63.1374 11.7635 62.93 11.7802Z" fill="#58595B"/>
<path d="M102.36 11.76C102.187 11.7599 102.017 11.8016 101.863 11.8818C101.71 11.9619 101.579 12.0779 101.48 12.22C101.231 12.5579 101.104 12.9705 101.12 13.39C101.097 13.826 101.232 14.2557 101.5 14.6C101.61 14.7419 101.751 14.857 101.912 14.9367C102.073 15.0164 102.25 15.0585 102.43 15.06C102.604 15.0582 102.774 15.0145 102.928 14.9327C103.081 14.8509 103.212 14.7333 103.31 14.59C103.562 14.2531 103.693 13.8406 103.68 13.42C103.699 12.9877 103.565 12.5625 103.3 12.22C103.189 12.0762 103.047 11.9599 102.884 11.8801C102.721 11.8003 102.542 11.7592 102.36 11.76Z" fill="#58595B"/>
<path d="M95.78 11.7402C95.6003 11.7263 95.4197 11.7263 95.24 11.7402C95.24 12.1902 95.24 12.7402 95.24 13.2602H95.45C96.31 13.2602 96.74 12.9802 96.74 12.4402C96.74 11.9002 96.45 11.7402 95.78 11.7402Z" fill="#58595B"/>
<path d="M86.53 28.3801C86.0548 28.382 85.585 28.4815 85.1498 28.6724C84.7146 28.8633 84.3233 29.1416 84 29.4901C83.6285 29.8826 83.3403 30.3464 83.153 30.8534C82.9656 31.3605 82.883 31.9002 82.91 32.4401C82.8844 32.9783 82.9677 33.5161 83.155 34.0213C83.3423 34.5265 83.6297 34.9887 84 35.3801C84.3318 35.7311 84.7318 36.0108 85.1754 36.2019C85.619 36.393 86.097 36.4916 86.58 36.4916C87.0631 36.4916 87.541 36.393 87.9847 36.2019C88.4283 36.0108 88.8282 35.7311 89.16 35.3801C89.5286 34.9879 89.8142 34.5253 89.9998 34.0202C90.1853 33.515 90.2671 32.9776 90.24 32.4401C90.2684 31.9009 90.1874 31.3616 90.0018 30.8546C89.8162 30.3476 89.5298 29.8834 89.16 29.4901C88.8239 29.1311 88.416 28.8468 87.963 28.6556C87.5099 28.4644 87.0217 28.3705 86.53 28.3801Z" fill="#58595B"/>
<path d="M74.26 28.38C73.7767 28.3774 73.2981 28.4747 72.8541 28.6657C72.4102 28.8567 72.0105 29.1373 71.68 29.49C71.3108 29.8842 71.0242 30.3482 70.837 30.8549C70.6498 31.3615 70.5658 31.9004 70.59 32.44C70.5643 32.9782 70.6476 33.516 70.8349 34.0212C71.0222 34.5265 71.3097 34.9886 71.68 35.38C72.0118 35.731 72.4118 36.0107 72.8554 36.2018C73.299 36.3929 73.777 36.4915 74.26 36.4915C74.743 36.4915 75.221 36.3929 75.6646 36.2018C76.1083 36.0107 76.5082 35.731 76.84 35.38C77.2103 34.9886 77.4978 34.5265 77.6851 34.0212C77.8724 33.516 77.9557 32.9782 77.93 32.44C77.9571 31.9001 77.8744 31.3604 77.6871 30.8534C77.4997 30.3463 77.2116 29.8825 76.84 29.49C76.5103 29.1364 76.1107 28.8551 75.6666 28.664C75.2225 28.4729 74.7435 28.3762 74.26 28.38Z" fill="#58595B"/>
<path d="M132.47 23.6501H128.94V29.3901H132.47C132.869 29.4051 133.267 29.3323 133.635 29.1768C134.003 29.0213 134.332 28.7869 134.6 28.4901C135.112 27.9621 135.398 27.2556 135.398 26.5201C135.398 25.7847 135.112 25.0781 134.6 24.5501C134.332 24.2534 134.003 24.019 133.635 23.8635C133.267 23.708 132.869 23.6351 132.47 23.6501Z" fill="#58595B"/>
<path d="M145.26 33.1501C145.022 33.3333 144.828 33.5677 144.693 33.8361C144.558 34.1044 144.485 34.3997 144.48 34.7001C144.473 34.9615 144.535 35.2202 144.66 35.4502C144.784 35.6801 144.967 35.8732 145.19 36.0101C145.671 36.3338 146.24 36.5015 146.82 36.4901C147.71 36.4778 148.56 36.1191 149.19 35.4901C149.525 35.2061 149.794 34.852 149.977 34.4529C150.16 34.0537 150.253 33.6192 150.25 33.1801C149.465 32.6398 148.52 32.3824 147.57 32.4501C146.741 32.3967 145.92 32.6454 145.26 33.1501Z" fill="#58595B"/>
<path d="M115.09 28.3802C114.356 28.3709 113.645 28.6306 113.09 29.1102C112.495 29.6357 112.082 30.3358 111.91 31.1102H118.42C118.348 30.4165 118.037 29.7694 117.54 29.2802C117.22 28.9638 116.835 28.7198 116.413 28.5645C115.99 28.4093 115.539 28.3464 115.09 28.3802Z" fill="#58595B"/>
<path d="M98.6999 28.3801C98.2252 28.376 97.755 28.4729 97.3206 28.6643C96.8861 28.8556 96.4973 29.1371 96.1799 29.4901C95.817 29.8874 95.5364 30.3526 95.3545 30.859C95.1726 31.3654 95.0928 31.9028 95.1199 32.4401C95.0942 32.9759 95.1746 33.5114 95.3565 34.0159C95.5384 34.5205 95.8182 34.9841 96.1799 35.3801C96.5014 35.7203 96.889 35.9913 97.3188 36.1765C97.7487 36.3617 98.2118 36.4572 98.6799 36.4572C99.148 36.4572 99.6111 36.3617 100.041 36.1765C100.471 35.9913 100.858 35.7203 101.18 35.3801C101.537 34.9715 101.81 34.4958 101.982 33.9807C102.153 33.4656 102.221 32.9215 102.18 32.3801C102.22 31.8388 102.152 31.2948 101.981 30.7799C101.809 30.2649 101.537 29.7891 101.18 29.3801C100.858 29.0511 100.472 28.7924 100.045 28.6203C99.6178 28.4482 99.1599 28.3664 98.6999 28.3801Z" fill="#58595B"/>
<path d="M161.44 0.000107285H7.47001C6.48866 -0.00120907 5.5167 0.19111 4.6098 0.566046C3.70291 0.940982 2.8789 1.49117 2.18498 2.18508C1.49107 2.879 0.940882 3.70301 0.565946 4.60991C0.191009 5.5168 -0.00130965 6.48876 6.71203e-06 7.47011V47.7901C5.8311e-06 48.7706 0.193295 49.7415 0.568821 50.6472C0.944346 51.553 1.49474 52.3758 2.18852 53.0687C2.88231 53.7615 3.70587 54.3108 4.61212 54.6851C5.51836 55.0594 6.4895 55.2514 7.47001 55.2501H161.47C162.451 55.2514 163.422 55.0594 164.328 54.6851C165.234 54.3108 166.058 53.7615 166.751 53.0687C167.445 52.3758 167.996 51.553 168.371 50.6472C168.747 49.7415 168.94 48.7706 168.94 47.7901V7.47011C168.941 6.48623 168.748 5.51181 168.371 4.60294C167.994 3.69408 167.442 2.86873 166.744 2.17442C166.047 1.48011 165.22 0.930553 164.309 0.55739C163.399 0.184227 162.424 -0.0051691 161.44 0.000107285ZM94.33 11.0901H96.1C96.4992 11.0783 96.8927 11.1863 97.23 11.4001C97.3847 11.4961 97.5102 11.6326 97.593 11.7947C97.6758 11.9568 97.7128 12.1385 97.7 12.3201C97.7171 12.5659 97.6676 12.8117 97.5567 13.0316C97.4458 13.2516 97.2777 13.4376 97.07 13.5701C96.6039 13.8539 96.0655 13.9963 95.52 13.9801H95.29C95.29 14.4301 95.29 14.9801 95.29 15.7401H94.29C94.29 15.0601 94.29 14.2501 94.29 13.3301C94.29 12.4101 94.36 11.7101 94.33 11.0901ZM85.64 13.4401C85.9704 12.6779 86.2445 11.8924 86.46 11.0901H87.8C88.0072 11.8778 88.2609 12.6525 88.56 13.4101C88.8553 14.1612 89.1058 14.9293 89.31 15.7101H88.17C88.1022 15.2583 87.9951 14.8133 87.85 14.3801H86.21C86.0564 14.8115 85.9459 15.257 85.88 15.7101H84.81C85.0458 14.9391 85.3229 14.1814 85.64 13.4401ZM78.58 11.0901H80.05C80.3877 11.0594 80.728 11.1005 81.0486 11.2108C81.3692 11.3211 81.6628 11.4981 81.91 11.7301C82.2866 12.1497 82.4903 12.6964 82.48 13.2601C82.4859 13.8987 82.2583 14.5175 81.84 15.0001C81.6144 15.2535 81.3344 15.4526 81.0209 15.5825C80.7075 15.7123 80.3687 15.7697 80.03 15.7501C79.68 15.7501 79.2 15.7501 78.58 15.7501C78.58 15.0401 78.58 14.2301 78.58 13.3401C78.58 12.4501 78.61 11.7001 78.58 11.0901ZM76.34 11.0901H77.34C77.34 11.6901 77.34 12.4201 77.34 13.3001C77.34 14.1801 77.34 14.9901 77.34 15.7101H76.34C76.34 14.9801 76.34 14.1701 76.34 13.3001C76.34 12.4301 76.37 11.7001 76.34 11.0901ZM71.49 11.7001C71.6981 11.4711 71.9533 11.2899 72.2382 11.169C72.523 11.0482 72.8307 10.9906 73.14 11.0001C73.4325 10.9931 73.7233 11.0473 73.9937 11.1592C74.2641 11.2712 74.508 11.4384 74.71 11.6501C74.9208 11.8746 75.0851 12.1387 75.1932 12.427C75.3013 12.7154 75.3512 13.0223 75.34 13.3301C75.3577 13.9941 75.1176 14.6392 74.67 15.1301C74.4634 15.3622 74.2088 15.5468 73.924 15.6711C73.6391 15.7954 73.3307 15.8565 73.02 15.8501C72.7266 15.8565 72.4352 15.801 72.1647 15.6873C71.8942 15.5736 71.6507 15.4042 71.45 15.1901C71.2404 14.9668 71.0769 14.7044 70.9688 14.4178C70.8607 14.1313 70.8101 13.8262 70.82 13.5201C70.8065 13.1876 70.8587 12.8557 70.9737 12.5434C71.0887 12.2311 71.2641 11.9445 71.49 11.7001ZM61.61 11.0901H63.08C63.4162 11.0582 63.7553 11.0988 64.0745 11.2092C64.3936 11.3197 64.6854 11.4973 64.93 11.7301C65.3129 12.1466 65.5206 12.6945 65.51 13.2601C65.5159 13.8987 65.2883 14.5175 64.87 15.0001C64.643 15.2518 64.3628 15.4497 64.0497 15.5794C63.7366 15.7092 63.3985 15.7675 63.06 15.7501C62.71 15.7501 62.22 15.7501 61.61 15.7501C61.61 15.0401 61.61 14.2301 61.61 13.3401C61.61 12.4501 61.64 11.7001 61.61 11.0901ZM56.61 11.0901H57.67C57.8914 11.6269 58.184 12.1314 58.54 12.5901C58.973 13.1737 59.3324 13.8085 59.61 14.4801H59.67C59.6132 14.0089 59.5832 13.5348 59.58 13.0601C59.58 12.4201 59.58 11.7701 59.53 11.0601H60.42C60.42 11.6501 60.42 12.3801 60.42 13.2701C60.42 14.1601 60.42 14.9601 60.42 15.6801H59.54C59.2642 15.1317 58.9288 14.6152 58.54 14.1401C58.0624 13.5287 57.6689 12.8561 57.37 12.1401H57.3C57.3568 12.608 57.3868 13.0788 57.39 13.5501C57.39 14.1301 57.39 14.8401 57.39 15.6801H56.51C56.51 14.9501 56.57 14.1401 56.57 13.2701C56.57 12.4001 56.6 11.7001 56.56 11.0901H56.61ZM52.17 13.4401C52.5062 12.6791 52.7837 11.8935 53 11.0901H54.34C54.5112 11.8765 54.7317 12.6514 55 13.4101C55.2954 14.1612 55.5458 14.9293 55.75 15.7101H54.66C54.5922 15.2583 54.4851 14.8133 54.34 14.3801H52.7C52.5454 14.8118 52.4315 15.2571 52.36 15.7101H51.3C51.5347 14.94 51.8084 14.1824 52.12 13.4401H52.17ZM14.77 11.8101L36.26 23.8701C36.59 24.0501 36.58 24.1601 36.33 24.4101C34.72 25.9901 33.13 27.5801 31.54 29.1701C31.37 29.3501 31.26 29.4501 31.03 29.1701L13.88 11.7501C13.83 11.7001 13.79 11.6401 13.69 11.5201C14.0539 11.5172 14.4111 11.6178 14.72 11.8101H14.77ZM12.51 47.2801C12.2347 47.0689 12.0151 46.7935 11.8705 46.4781C11.7258 46.1626 11.6604 45.8166 11.68 45.4701C11.68 42.3601 11.68 39.2601 11.68 36.1501V29.5701V13.8401C11.6578 13.5293 11.6977 13.2171 11.7972 12.9218C11.8968 12.6266 12.0541 12.354 12.26 12.1201C12.43 11.9301 12.56 11.8801 12.78 12.1201L23.38 22.9101L30.25 29.9101C30.48 30.1301 30.5 30.2501 30.25 30.4801C24.63 36.0734 19.0167 41.6734 13.41 47.2801C13.3567 47.3486 13.2885 47.4041 13.2105 47.4423C13.1325 47.4804 13.0468 47.5002 12.96 47.5002C12.8732 47.5002 12.7875 47.4804 12.7095 47.4423C12.6315 47.4041 12.5633 47.3486 12.51 47.2801ZM35.63 35.8901L15.57 46.8901C15.476 46.9511 15.3858 47.0179 15.3 47.0901C20.5133 41.8168 25.7233 36.5434 30.93 31.2701C31.25 30.9501 31.4 30.9901 31.69 31.2701C33.01 32.6501 34.35 34.0001 35.69 35.3501C35.93 35.6201 36 35.7201 35.63 35.8901ZM44.35 31.0001C44.03 31.2245 43.696 31.4282 43.35 31.6101C41.35 32.7201 39.3 33.8301 37.28 34.9601C37.2313 34.999 37.1753 35.0276 37.1153 35.0441C37.0552 35.0607 36.9924 35.0649 36.9307 35.0565C36.869 35.0481 36.8097 35.0272 36.7562 34.9952C36.7028 34.9632 36.6565 34.9206 36.62 34.8701C35.19 33.3901 33.74 31.8701 32.28 30.4501C32.07 30.2401 32.06 30.1201 32.28 29.9101C33.98 28.2301 35.67 26.5468 37.35 24.8601C37.3825 24.8149 37.424 24.7767 37.4717 24.748C37.5195 24.7193 37.5726 24.7007 37.6278 24.6932C37.683 24.6857 37.7392 24.6895 37.7929 24.7045C37.8465 24.7194 37.8966 24.7452 37.94 24.7801C39.94 25.9101 41.94 27.0301 43.94 28.1501C44.2493 28.2776 44.5174 28.4878 44.715 28.7577C44.9126 29.0276 45.032 29.3468 45.06 29.6801C45.0551 29.9407 44.9881 30.1964 44.8646 30.426C44.7411 30.6555 44.5647 30.8523 44.35 31.0001ZM65.57 36.0001C64.7967 36.8038 63.8627 37.4356 62.8289 37.8543C61.7951 38.273 60.6847 38.4692 59.57 38.4301C58.4384 38.4463 57.3151 38.2351 56.2667 37.8089C55.2182 37.3827 54.2661 36.7502 53.4668 35.9491C52.6675 35.1479 52.0373 34.1943 51.6135 33.1449C51.1898 32.0955 50.9811 30.9717 51 29.8401C50.9826 28.7141 51.1907 27.596 51.6121 26.5516C52.0335 25.5073 52.6596 24.5579 53.4536 23.7592C54.2476 22.9606 55.1933 22.3289 56.2352 21.9014C57.277 21.474 58.3939 21.2593 59.52 21.2701C60.6788 21.266 61.826 21.5009 62.89 21.9601C63.8783 22.3602 64.7587 22.9871 65.46 23.7901L64 25.2401C63.449 24.5926 62.7567 24.0802 61.9766 23.7421C61.1965 23.4041 60.3493 23.2494 59.5 23.2901C58.6469 23.2856 57.8017 23.4533 57.015 23.7832C56.2283 24.113 55.5162 24.5983 54.9215 25.2098C54.3267 25.8214 53.8615 26.5467 53.5536 27.3423C53.2458 28.1379 53.1017 28.9875 53.13 29.8401C53.1004 30.6935 53.2434 31.5442 53.5506 32.341C53.8578 33.1377 54.3228 33.8643 54.9177 34.4769C55.5126 35.0895 56.2252 35.5757 57.0126 35.9062C57.8 36.2367 58.6461 36.4047 59.5 36.4001C60.3494 36.4242 61.1948 36.2743 61.9842 35.9596C62.7736 35.6449 63.4902 35.1721 64.09 34.5701C64.9294 33.6592 65.4154 32.478 65.46 31.2401H59.46V29.2401H67.46C67.535 29.6491 67.5718 30.0643 67.57 30.4801C67.6303 31.4879 67.484 32.4974 67.14 33.4466C66.7961 34.3959 66.2618 35.2648 65.57 36.0001ZM67.47 13.8801C67.47 14.4901 67.47 15.1001 67.47 15.7201H66.47C66.47 15.0101 66.47 14.2001 66.47 13.3101C66.47 12.4201 66.47 11.7101 66.47 11.1001H68.2C69.28 11.1001 69.83 11.4701 69.83 12.2101C69.8353 12.4909 69.7467 12.7654 69.5782 12.99C69.4097 13.2147 69.171 13.3766 68.9 13.4501V13.5001C69.1723 13.598 69.395 13.7992 69.52 14.0601C69.8077 14.5998 70.0518 15.1616 70.25 15.7401H69.25C69.1063 15.1989 68.8946 14.6781 68.62 14.1901C68.5343 14.0876 68.4248 14.0075 68.301 13.957C68.1773 13.9064 68.043 13.8869 67.91 13.9001L67.47 13.8801ZM78.41 36.7101C77.3067 37.8056 75.8149 38.4204 74.26 38.4204C72.7052 38.4204 71.2134 37.8056 70.11 36.7101C69.0246 35.5576 68.4387 34.0227 68.48 32.4401C68.4361 30.854 69.0221 29.3151 70.11 28.1601C71.2134 27.0646 72.7052 26.4498 74.26 26.4498C75.8149 26.4498 77.3067 27.0646 78.41 28.1601C78.9447 28.7331 79.3605 29.4063 79.6334 30.1409C79.9063 30.8756 80.0309 31.657 80 32.4401C80.0296 33.2215 79.9044 34.0011 79.6315 34.7339C79.3586 35.4667 78.9435 36.1384 78.41 36.7101ZM90.68 36.7101C89.5767 37.8056 88.0849 38.4204 86.53 38.4204C84.9752 38.4204 83.4834 37.8056 82.38 36.7101C81.8394 36.1416 81.4169 35.4714 81.1371 34.7385C80.8573 34.0055 80.7257 33.2243 80.75 32.4401C80.7244 31.6543 80.8553 30.8712 81.1351 30.1364C81.415 29.4016 81.8381 28.7298 82.38 28.1601C83.4834 27.0646 84.9752 26.4498 86.53 26.4498C88.0849 26.4498 89.5767 27.0646 90.68 28.1601C91.7642 29.3167 92.3467 30.8554 92.3 32.4401C92.344 34.0213 91.7618 35.556 90.68 36.7101ZM91.27 14.0001H91C91 14.4501 91 15.0001 91 15.7601H90C90 15.0801 90.05 14.2701 90.05 13.3501C90.05 12.4301 90.05 11.7601 90 11.1401H91.77C92.1726 11.1263 92.5699 11.2343 92.91 11.4501C93.0628 11.5474 93.1863 11.6844 93.2674 11.8464C93.3484 12.0085 93.3839 12.1895 93.37 12.3701C93.3871 12.6159 93.3376 12.8617 93.2267 13.0816C93.1158 13.3016 92.9477 13.4876 92.74 13.6201C92.2948 13.8807 91.7858 14.0123 91.27 14.0001ZM104.27 37.5201C104.325 38.329 104.204 39.1402 103.916 39.8979C103.627 40.6557 103.179 41.3421 102.6 41.9101C101.48 42.9103 100.021 43.4466 98.52 43.4101C97.3505 43.4632 96.1986 43.1098 95.26 42.4101C94.4733 41.8157 93.8505 41.0312 93.45 40.1301L95.38 39.3301C95.6021 39.9518 96.0152 40.4873 96.56 40.8601C97.1383 41.2852 97.8427 41.5036 98.56 41.4801C99.0612 41.5138 99.5639 41.4423 100.036 41.27C100.508 41.0978 100.938 40.8287 101.3 40.4801C101.994 39.7057 102.353 38.6884 102.3 37.6501V36.4901H102.2C101.805 37.0706 101.272 37.5446 100.65 37.8701C99.9508 38.2391 99.1706 38.4281 98.38 38.4201C97.6625 38.427 96.9523 38.2766 96.2992 37.9794C95.6461 37.6823 95.0661 37.2456 94.6 36.7001C93.5326 35.5424 92.9586 34.0142 93 32.4401C92.9544 30.8641 93.5247 29.3324 94.59 28.1701C95.0539 27.6272 95.6307 27.1921 96.2801 26.895C96.9295 26.598 97.6359 26.4461 98.35 26.4501C99.1406 26.4421 99.9208 26.6311 100.62 27.0001C101.242 27.3256 101.775 27.7996 102.17 28.3801H102.27V26.8201H104.27V37.5201ZM104 15.1201C103.792 15.3507 103.537 15.5342 103.253 15.6584C102.968 15.7826 102.66 15.8445 102.35 15.8401C102.057 15.8471 101.765 15.7919 101.494 15.6782C101.224 15.5644 100.98 15.3947 100.78 15.1801C100.57 14.9568 100.407 14.6944 100.299 14.4078C100.191 14.1213 100.14 13.8162 100.15 13.5101C100.125 12.8419 100.366 12.1912 100.82 11.7001C101.027 11.4693 101.282 11.2862 101.567 11.1636C101.852 11.041 102.16 10.9818 102.47 10.9901C102.761 10.982 103.051 11.0357 103.32 11.1478C103.589 11.2598 103.831 11.4276 104.03 11.6401C104.241 11.8646 104.405 12.1287 104.513 12.417C104.621 12.7054 104.671 13.0123 104.66 13.3201C104.681 13.9829 104.445 14.6282 104 15.1201ZM108.41 38.0501H106.3V21.6401H108.41V38.0501ZM109.47 15.7101H108.6C108.321 15.1634 107.986 14.6473 107.6 14.1701C107.12 13.562 106.73 12.8886 106.44 12.1701H106.38C106.437 12.638 106.467 13.1088 106.47 13.5801C106.47 14.1601 106.47 14.8701 106.47 15.7101H105.6C105.6 14.9801 105.6 14.1701 105.6 13.3001C105.6 12.4301 105.6 11.7001 105.6 11.0901H106.6C106.823 11.6283 107.119 12.1331 107.48 12.5901C107.913 13.1737 108.272 13.8085 108.55 14.4801C108.496 14.0087 108.469 13.5346 108.47 13.0601C108.47 12.4201 108.47 11.7701 108.47 11.0601H109.35C109.35 11.6501 109.35 12.3801 109.35 13.2701C109.35 14.1601 109.43 15.0001 109.46 15.7101H109.47ZM120.62 32.8201H111.75C111.753 33.3215 111.855 33.8174 112.051 34.279C112.247 34.7407 112.532 35.1591 112.89 35.5101C113.539 36.1525 114.417 36.5119 115.33 36.5101C115.981 36.5682 116.633 36.4121 117.187 36.0655C117.741 35.7189 118.167 35.2009 118.4 34.5901L120.28 35.3701C119.897 36.2574 119.269 37.0171 118.47 37.5601C117.553 38.1669 116.469 38.4743 115.37 38.4401C114.6 38.4671 113.834 38.3294 113.121 38.0362C112.409 37.743 111.768 37.3011 111.24 36.7401C110.163 35.5803 109.588 34.042 109.64 32.4601C109.609 30.9087 110.162 29.4023 111.19 28.2401C111.679 27.6613 112.293 27.2011 112.986 26.8945C113.679 26.5879 114.433 26.4427 115.19 26.4701C115.935 26.4386 116.677 26.5679 117.368 26.8492C118.058 27.1305 118.679 27.5571 119.19 28.1001C120.234 29.3055 120.771 30.8677 120.69 32.4601L120.62 32.8201ZM136 30.0001C135.018 30.9059 133.726 31.3999 132.39 31.3801H128.91V38.0301H126.8V21.6401H132.39C133.723 21.6148 135.015 22.1016 136 23.0001C136.48 23.4482 136.862 23.9902 137.123 24.5922C137.385 25.1943 137.52 25.8437 137.52 26.5001C137.52 27.1565 137.385 27.8059 137.123 28.408C136.862 29.0101 136.48 29.552 136 30.0001ZM141 38.0001H138.89V21.6401H141V38.0001ZM152.23 38.0001H150.23V36.4901H150.14C149.752 37.1106 149.205 37.6164 148.557 37.9556C147.908 38.2948 147.181 38.4552 146.45 38.4201C145.362 38.4634 144.295 38.1078 143.45 37.4201C143.057 37.0847 142.746 36.665 142.538 36.1923C142.33 35.7196 142.232 35.2061 142.25 34.6901C142.229 34.13 142.348 33.5735 142.596 33.0707C142.844 32.568 143.213 32.1348 143.67 31.8101C144.702 31.1071 145.933 30.7563 147.18 30.8101C148.223 30.7753 149.257 31.0131 150.18 31.5001V31.1801C150.197 30.8053 150.131 30.4314 149.985 30.0855C149.84 29.7396 149.62 29.4303 149.34 29.1801C148.759 28.6834 148.014 28.4197 147.25 28.4401C146.668 28.4303 146.094 28.5789 145.59 28.8701C145.125 29.134 144.77 29.5563 144.59 30.0601L142.66 29.2401C142.985 28.4832 143.52 27.8346 144.2 27.3701C145.08 26.7655 146.133 26.4636 147.2 26.5101C148.509 26.4641 149.788 26.9141 150.78 27.7701C151.264 28.2224 151.642 28.776 151.888 29.3914C152.133 30.0068 152.24 30.6688 152.2 31.3301L152.23 38.0001ZM156.82 43.0001H154.64L157.25 37.3401L152.62 26.8201H155L158.35 34.8901L161.6 26.8201H163.89L156.82 43.0001Z" fill="#58595B"/>
</g>
<defs>
<clipPath id="clip0">
<rect width="168.91" height="55.25" fill="white"/>
</clipPath>
</defs>
</svg>
