<svg width="15" height="18" viewBox="0 0 15 18" fill="none" xmlns="http://www.w3.org/2000/svg">
<path d="M14.6783 9.82449L14.0887 9.23473C13.9036 9.04932 13.6561 8.94673 13.3927 8.94673C13.129 8.94673 12.8592 9.04932 12.674 9.23473L8.862 13.0241V0.985024C8.862 0.442098 8.4657 0 7.92292 0H7.08863C6.546 0 6.04946 0.442098 6.04946 0.985024V13.067L2.24502 9.23473C2.05961 9.04932 1.82634 8.94673 1.56263 8.94673C1.29922 8.94673 1.05863 9.04932 0.873367 9.23473L0.286977 9.82449C-0.0967304 10.2083 -0.0951207 10.8328 0.288586 11.2166L6.78527 17.7126C6.97024 17.8976 7.21844 18 7.48405 18H7.48683C7.75039 18 7.998 17.8976 8.18297 17.7126L14.6783 11.2168C15.0623 10.8331 15.0623 10.2083 14.6783 9.82449Z" fill="#EC681C"/>
</svg>
