<svg width="160" height="56" viewBox="0 0 160 56" fill="none" xmlns="http://www.w3.org/2000/svg">
<path d="M21 14H24C24.0516 14.0087 24.1045 14.006 24.155 13.9922C24.2054 13.9784 24.2523 13.9537 24.2923 13.9199C24.3322 13.8861 24.3643 13.844 24.3864 13.7965C24.4084 13.749 24.4198 13.6973 24.4198 13.645C24.4198 13.5927 24.4084 13.541 24.3864 13.4935C24.3643 13.446 24.3322 13.4039 24.2923 13.3701C24.2523 13.3363 24.2054 13.3116 24.155 13.2978C24.1045 13.284 24.0516 13.2813 24 13.29H21C20.9484 13.2813 20.8955 13.284 20.845 13.2978C20.7946 13.3116 20.7477 13.3363 20.7077 13.3701C20.6678 13.4039 20.6357 13.446 20.6136 13.4935C20.5916 13.541 20.5802 13.5927 20.5802 13.645C20.5802 13.6973 20.5916 13.749 20.6136 13.7965C20.6357 13.844 20.6678 13.8861 20.7077 13.9199C20.7477 13.9537 20.7946 13.9784 20.845 13.9922C20.8955 14.006 20.9484 14.0087 21 14ZM22.5 40.41C22.1877 40.3961 21.8784 40.4757 21.6117 40.6387C21.3449 40.8016 21.1329 41.0405 21.0028 41.3247C20.8726 41.6088 20.8302 41.9254 20.8811 42.2338C20.9319 42.5422 21.0736 42.8284 21.2881 43.0558C21.5026 43.2832 21.7801 43.4413 22.085 43.51C22.39 43.5788 22.7085 43.5549 22.9998 43.4415C23.291 43.3281 23.5418 43.1303 23.72 42.8735C23.8982 42.6167 23.9957 42.3125 24 42C24.008 41.7926 23.9746 41.5858 23.9017 41.3915C23.8287 41.1972 23.7178 41.0195 23.5753 40.8686C23.4328 40.7177 23.2617 40.5968 23.0719 40.5129C22.8821 40.429 22.6775 40.3838 22.47 40.38L22.5 40.41ZM14.79 39H30.16V16.29H14.79V39ZM64.08 31.53C63.3493 31.5268 62.641 31.7818 62.08 32.25C61.4904 32.7388 61.0819 33.4114 60.92 34.16C60.8396 34.4538 60.7927 34.7557 60.78 35.06V37.28C60.7512 38.1806 61.0698 39.0578 61.67 39.73C61.9596 40.0541 62.3162 40.3113 62.715 40.484C63.1139 40.6567 63.5455 40.7406 63.98 40.73C64.4888 40.7542 64.9953 40.6485 65.452 40.4228C65.9086 40.1971 66.3002 39.8589 66.59 39.44C67.2492 38.4328 67.5714 37.2422 67.51 36.04C67.5614 34.9118 67.257 33.7959 66.64 32.85C66.3537 32.4403 65.9696 32.1086 65.5225 31.885C65.0754 31.6615 64.5796 31.5532 64.08 31.57V31.53ZM118 31.38C117.444 31.3733 116.897 31.5212 116.42 31.8073C115.944 32.0934 115.556 32.5063 115.3 33C114.747 33.9662 114.473 35.0672 114.51 36.18C114.476 37.2798 114.749 38.3673 115.3 39.32C115.565 39.8007 115.957 40.1993 116.433 40.4727C116.909 40.746 117.451 40.8834 118 40.87C118.546 40.8745 119.083 40.7261 119.55 40.4416C120.016 40.1571 120.394 39.7478 120.64 39.26C121.171 38.2969 121.45 37.2149 121.45 36.115C121.45 35.0151 121.171 33.9331 120.64 32.97C120.39 32.4866 120.011 32.0821 119.545 31.8014C119.079 31.5206 118.544 31.3748 118 31.38ZM78.69 31.57C77.959 31.5651 77.2501 31.8203 76.69 32.29C76.1007 32.7808 75.6896 33.4521 75.52 34.2C75.4421 34.494 75.3985 34.796 75.39 35.1V37.32C75.3612 38.2206 75.6798 39.0979 76.28 39.77C76.5696 40.0941 76.9262 40.3513 77.325 40.524C77.7239 40.6967 78.1555 40.7806 78.59 40.77C79.0971 40.7925 79.6017 40.686 80.0564 40.4604C80.5111 40.2347 80.9012 39.8974 81.19 39.48C81.8562 38.4752 82.1854 37.2844 82.13 36.08C82.1737 34.9512 81.8663 33.8367 81.25 32.89C80.9692 32.4743 80.5887 32.1357 80.1432 31.9051C79.6977 31.6745 79.2015 31.5593 78.7 31.57H78.69ZM48.16 26.81H48.1C47.92 27.59 47.63 28.75 47.23 30.29L45.69 35.1H50.69L49.13 30.29C48.9367 29.79 48.6133 28.63 48.16 26.81ZM140.43 31.24C139.968 31.2344 139.511 31.3417 139.1 31.5526C138.689 31.7635 138.335 32.0715 138.07 32.45C137.57 33.1159 137.268 33.9098 137.2 34.74H143.36C143.39 33.9432 143.188 33.1548 142.78 32.47C142.535 32.0729 142.187 31.7492 141.774 31.5328C141.36 31.3164 140.896 31.2152 140.43 31.24ZM61.19 18.11C61.2097 17.9841 61.2097 17.8559 61.19 17.73V16.79C59.97 16.79 58.8 17.03 58.8 18.07C58.7859 18.2048 58.802 18.341 58.8473 18.4688C58.8925 18.5966 58.9657 18.7126 59.0616 18.8084C59.1574 18.9043 59.2734 18.9775 59.4012 19.0227C59.529 19.068 59.6652 19.0841 59.8 19.07C60.1039 19.0799 60.403 18.992 60.6533 18.8192C60.9035 18.6464 61.0916 18.3978 61.19 18.11ZM45.06 13.81C44.88 13.23 44.72 12.58 44.58 12.03C44.44 12.58 44.29 13.24 44.13 13.81L43.4 16.14H45.84L45.06 13.81ZM152.39 0H6.72C4.93856 0.00264506 3.23084 0.711492 1.97116 1.97116C0.711492 3.23084 0.00264506 4.93856 0 6.72V48.59C0.00528695 50.3697 0.7153 52.0749 1.97469 53.3324C3.23407 54.5899 4.94029 55.2974 6.72 55.3H152.39C154.171 55.3 155.88 54.5937 157.142 53.3359C158.403 52.0781 159.115 50.3714 159.12 48.59V6.72C159.115 4.93764 158.404 3.22994 157.142 1.97055C155.881 0.711163 154.172 0.00263662 152.39 0V0ZM143.16 13.13C145.38 13.13 146.16 14.96 146.16 16.46C146.162 16.708 146.142 16.9557 146.1 17.2H141.52C141.527 17.457 141.587 17.7097 141.696 17.9423C141.806 18.1749 141.962 18.3824 142.156 18.5515C142.349 18.7206 142.576 18.8478 142.821 18.925C143.066 19.0022 143.324 19.0277 143.58 19C144.226 19.0065 144.869 18.9017 145.48 18.69L145.73 19.87C144.97 20.1726 144.158 20.3222 143.34 20.31C142.872 20.3533 142.399 20.2942 141.956 20.1366C141.513 19.979 141.109 19.7269 140.774 19.3976C140.438 19.0684 140.177 18.6699 140.011 18.23C139.845 17.79 139.776 17.3191 139.81 16.85C139.764 16.3812 139.816 15.9081 139.964 15.4606C140.111 15.0132 140.35 14.6014 140.665 14.2514C140.98 13.9014 141.365 13.6209 141.794 13.4278C142.224 13.2347 142.689 13.1333 143.16 13.13ZM115.7 13.29L115.78 14.29C116.013 13.9199 116.339 13.6166 116.724 13.4098C117.11 13.2029 117.543 13.0997 117.98 13.11C119.17 13.11 120.41 13.88 120.41 16.05V20.12H118.68V16.27C118.68 15.27 118.31 14.54 117.37 14.54C117.069 14.5459 116.777 14.6454 116.535 14.8246C116.294 15.0038 116.113 15.2538 116.02 15.54C115.96 15.7169 115.933 15.9033 115.94 16.09V20.09H114.21V15.33C114.21 14.54 114.21 13.88 114.15 13.33L115.7 13.29ZM97.52 13.13C99.75 13.13 100.52 14.96 100.52 16.46C100.522 16.708 100.502 16.9557 100.46 17.2H95.83C95.8361 17.4617 95.8973 17.7192 96.0097 17.9556C96.1221 18.1921 96.2832 18.4021 96.4823 18.572C96.6815 18.7419 96.9143 18.8679 97.1655 18.9416C97.4167 19.0154 97.6806 19.0353 97.94 19C98.5866 19.0083 99.2296 18.9034 99.84 18.69L100.1 19.87C99.3401 20.1726 98.5279 20.3222 97.71 20.31C97.2412 20.3531 96.7687 20.2939 96.325 20.1364C95.8814 19.9789 95.4773 19.7269 95.1406 19.3979C94.8039 19.0688 94.5428 18.6706 94.3752 18.2306C94.2076 17.7907 94.1376 17.3196 94.17 16.85C94.1257 16.3815 94.1791 15.909 94.3269 15.4622C94.4746 15.0155 94.7135 14.6043 95.0284 14.2546C95.3433 13.9049 95.7273 13.6244 96.1562 13.4309C96.5851 13.2373 97.0495 13.1348 97.52 13.13ZM90.43 10.13H92.16V20.13H90.43V10.13ZM76.71 14.33C76.0593 14.3348 75.4213 14.5107 74.86 14.84L74.52 13.72C75.2818 13.3124 76.1362 13.1091 77 13.13C79.2 13.13 79.83 14.52 79.83 16.03V18.49C79.8202 19.0421 79.857 19.5941 79.94 20.14H78.38L78.25 19.38C78.0065 19.6723 77.7002 19.9059 77.354 20.0635C77.0077 20.221 76.6303 20.2984 76.25 20.29C75.975 20.3107 75.6987 20.2743 75.4385 20.1831C75.1783 20.0919 74.9397 19.9478 74.7378 19.76C74.5359 19.5722 74.375 19.3446 74.2652 19.0917C74.1555 18.8387 74.0992 18.5658 74.1 18.29C74.1 16.58 75.63 15.69 78.17 15.7V15.59C78.1 15.1 77.91 14.35 76.71 14.35V14.33ZM66.47 10.43C66.6529 10.4417 66.8284 10.5066 66.9749 10.6168C67.1214 10.7269 67.2325 10.8775 67.2945 11.0499C67.3565 11.2224 67.3668 11.4092 67.3241 11.5874C67.2813 11.7656 67.1873 11.9275 67.0538 12.053C66.9203 12.1785 66.7529 12.2623 66.5724 12.2939C66.3919 12.3256 66.2061 12.3038 66.0378 12.2312C65.8695 12.1587 65.7261 12.0385 65.6252 11.8855C65.5243 11.7324 65.4704 11.5533 65.47 11.37C65.4667 11.2405 65.4908 11.1117 65.5407 10.9921C65.5906 10.8726 65.6652 10.7649 65.7596 10.6762C65.854 10.5874 65.9661 10.5196 66.0885 10.4772C66.2109 10.4348 66.3409 10.4187 66.47 10.43ZM67.33 13.29V20.14H65.6V13.29H67.33ZM43.53 10.65H45.74L48.82 20.14H47L46.14 17.45H43.14L42.33 20.14H40.49L43.53 10.65ZM32 42.1C32 42.8956 31.6839 43.6587 31.1213 44.2213C30.5587 44.7839 29.7956 45.1 29 45.1H16C15.2044 45.1 14.4413 44.7839 13.8787 44.2213C13.3161 43.6587 13 42.8956 13 42.1V13.22C13 12.4244 13.3161 11.6613 13.8787 11.0987C14.4413 10.5361 15.2044 10.22 16 10.22H29C29.7956 10.22 30.5587 10.5361 31.1213 11.0987C31.6839 11.6613 32 12.4244 32 13.22V42.1ZM52.89 42.79L51.17 37.38H45.17L43.53 42.79H40.47L46.4 24.34H50.07L56.07 42.79H52.89ZM53.56 20.14H51.86L49.31 13.29H51.19L52.3 16.76C52.49 17.37 52.63 17.91 52.76 18.48C52.89 17.91 53.05 17.38 53.23 16.76L54.33 13.29H56.14L53.56 20.14ZM57.13 18.25C57.13 16.54 58.66 15.65 61.19 15.66V15.55C61.19 15.1 61.01 14.35 59.8 14.35C59.1523 14.3537 58.5172 14.5297 57.96 14.86L57.62 13.74C58.3782 13.321 59.2339 13.1105 60.1 13.13C62.29 13.13 62.92 14.52 62.92 16.03V18.49C62.8947 19.0413 62.9215 19.5937 63 20.14H61.47L61.35 19.38C61.1065 19.6723 60.8002 19.9059 60.4539 20.0635C60.1077 20.221 59.7303 20.2984 59.35 20.29C59.0661 20.3215 58.7787 20.2919 58.5072 20.203C58.2357 20.1141 57.9864 19.9682 57.7761 19.7749C57.5657 19.5816 57.3992 19.3455 57.2878 19.0824C57.1763 18.8194 57.1225 18.5356 57.13 18.25ZM68.7 41.35C68.1784 41.9134 67.5433 42.3598 66.8366 42.6597C66.1299 42.9596 65.3676 43.1063 64.6 43.09C63.8543 43.1527 63.1057 43.0097 62.4357 42.6765C61.7656 42.3432 61.1999 41.8325 60.8 41.2V48.2H57.85V33.86C57.85 32.44 57.85 30.98 57.74 29.49H60.34L60.5 31.6C60.9472 30.9007 61.5533 30.317 62.2689 29.8963C62.9845 29.4757 63.7893 29.23 64.6178 29.1793C65.4463 29.1286 66.2751 29.2744 67.0366 29.6047C67.7981 29.935 68.4709 30.4405 69 31.08C70.0909 32.4806 70.6411 34.2271 70.55 36C70.6505 37.9558 69.9872 39.8741 68.7 41.35ZM71.78 20.14H70.05V10.14H71.78V20.14ZM83.32 41.35C82.798 41.9129 82.1629 42.3589 81.4562 42.6588C80.7496 42.9587 79.9875 43.1057 79.22 43.09C78.4743 43.1527 77.7257 43.0097 77.0557 42.6765C76.3856 42.3432 75.8199 41.8325 75.42 41.2V48.2H72.42V33.86C72.42 32.44 72.42 30.98 72.31 29.49H75L75.17 31.6C75.6181 30.914 76.2203 30.3421 76.9286 29.9301C77.6369 29.518 78.4316 29.2771 79.2495 29.2266C80.0673 29.1761 80.8857 29.3174 81.6393 29.6392C82.3929 29.9609 83.0609 30.4543 83.59 31.08C84.6921 32.4757 85.25 34.224 85.16 36C85.2633 37.9544 84.6036 39.8726 83.32 41.35ZM85.32 20.29C84.8842 20.3153 84.4501 20.2182 84.0666 20.0096C83.6832 19.8011 83.3657 19.4895 83.15 19.11L83.07 20.11H81.59C81.59 19.64 81.65 18.88 81.65 18.18V10.15H83.38V14.23C83.6208 13.8726 83.9499 13.5835 84.3354 13.3907C84.7208 13.198 85.1496 13.1082 85.58 13.13C87.25 13.13 88.45 14.52 88.44 16.61C88.46 19.07 86.89 20.29 85.35 20.29H85.32ZM100.2 41.45C98.7922 42.5911 97.0091 43.1652 95.2 43.06C93.5309 43.1399 91.8734 42.7446 90.42 41.92L91.1 39.45C92.3914 40.2167 93.8683 40.6144 95.37 40.6C96.2975 40.6596 97.2168 40.3945 97.97 39.85C98.27 39.612 98.5103 39.3073 98.6717 38.9601C98.8332 38.6129 98.9113 38.2327 98.9 37.85C98.9017 37.5067 98.8354 37.1665 98.705 36.849C98.5746 36.5315 98.3825 36.2429 98.14 36C97.3949 35.3589 96.5274 34.8758 95.59 34.58C92.37 33.38 90.75 31.58 90.75 29.3C90.73 28.5888 90.8738 27.8825 91.1703 27.2357C91.4668 26.5889 91.9081 26.019 92.46 25.57C93.7419 24.5369 95.355 24.0039 97 24.07C98.4469 24.0244 99.8837 24.3261 101.19 24.95L100.44 27.36C99.3517 26.7798 98.1331 26.4872 96.9 26.51C96.0186 26.4613 95.1491 26.731 94.45 27.27C94.2166 27.4804 94.0307 27.7383 93.9048 28.0262C93.7789 28.3142 93.7159 28.6257 93.72 28.94C93.7136 29.2856 93.786 29.6282 93.9315 29.9418C94.077 30.2553 94.2919 30.5317 94.56 30.75C95.3733 31.3611 96.2777 31.8403 97.24 32.17C98.57 32.6349 99.7722 33.4056 100.75 34.42C101.51 35.3092 101.91 36.4508 101.87 37.62C101.892 38.3393 101.757 39.0548 101.474 39.7164C101.19 40.3779 100.766 40.9696 100.23 41.45H100.2ZM110.62 31.7H107.35V38.17C107.35 39.81 107.93 40.63 109.08 40.63C109.524 40.6407 109.967 40.597 110.4 40.5L110.48 42.74C109.739 42.9845 108.96 43.0962 108.18 43.07C107.68 43.0933 107.18 43.01 106.715 42.8255C106.249 42.6411 105.828 42.3596 105.48 42C104.712 40.9693 104.355 39.6894 104.48 38.41V31.7H102.53V29.49H104.48V27.05L107.37 26.18V29.49H110.64L110.62 31.7ZM109 20.29C108.536 20.3079 108.074 20.228 107.643 20.0556C107.212 19.8831 106.822 19.622 106.499 19.2891C106.175 18.9562 105.925 18.559 105.765 18.1233C105.605 17.6876 105.539 17.2231 105.57 16.76C105.534 16.2818 105.6 15.8013 105.764 15.3506C105.928 14.8999 106.186 14.4893 106.521 14.1459C106.855 13.8026 107.259 13.5344 107.706 13.3592C108.152 13.1841 108.631 13.1059 109.11 13.13C109.572 13.112 110.033 13.1916 110.462 13.3636C110.891 13.5356 111.279 13.7962 111.601 14.1283C111.923 14.4605 112.171 14.8567 112.329 15.2912C112.488 15.7257 112.553 16.1887 112.52 16.65C112.556 17.1269 112.49 17.606 112.327 18.0557C112.165 18.5054 111.909 18.9157 111.576 19.2595C111.244 19.6032 110.842 19.8728 110.398 20.0504C109.954 20.228 109.478 20.3097 109 20.29ZM122.8 41.07C122.18 41.7367 121.422 42.2608 120.58 42.6062C119.737 42.9515 118.83 43.1097 117.92 43.07C117.047 43.106 116.177 42.9511 115.371 42.616C114.564 42.2809 113.84 41.7738 113.25 41.13C112.071 39.776 111.453 38.0239 111.52 36.23C111.442 34.3757 112.083 32.5629 113.31 31.17C113.92 30.5034 114.668 29.9788 115.503 29.6332C116.337 29.2876 117.238 29.1295 118.14 29.17C119.024 29.1355 119.905 29.297 120.719 29.6427C121.533 29.9885 122.261 30.51 122.85 31.17C123.995 32.512 124.592 34.2371 124.52 36C124.6 37.8489 123.978 39.6598 122.78 41.07H122.8ZM125.8 13.29H126.8V12L128.5 11.53V13.29H130.15V14.58H128.5V17.58C128.5 18.43 128.73 18.85 129.39 18.85C129.619 18.8626 129.848 18.8389 130.07 18.78V20.09C129.667 20.2208 129.244 20.2817 128.82 20.27C128.547 20.2836 128.273 20.2409 128.017 20.1446C127.761 20.0483 127.527 19.9004 127.33 19.71C126.906 19.1612 126.709 18.4701 126.78 17.78V14.58H125.78L125.8 13.29ZM133.39 32.09C133.083 32.0373 132.772 32.0105 132.46 32.01C131.992 31.9901 131.526 32.0877 131.105 32.2937C130.684 32.4998 130.321 32.8079 130.05 33.19C129.529 33.9614 129.269 34.8799 129.31 35.81V42.81H126.31V33.67C126.31 32.15 126.31 30.75 126.23 29.49H128.81L129 32H129.08C129.357 31.1671 129.871 30.4336 130.56 29.89C131.173 29.4272 131.922 29.1778 132.69 29.18C132.938 29.1796 133.185 29.1963 133.43 29.23L133.39 32.09ZM133.87 16V20.11H132.14V10.11H133.87V14.17C134.089 13.8461 134.384 13.5815 134.73 13.4C135.096 13.1938 135.51 13.087 135.93 13.09C137.1 13.09 138.32 13.86 138.32 16.09V20.09H136.59V16.28C136.59 15.28 136.22 14.54 135.27 14.54C134.968 14.5429 134.675 14.6412 134.433 14.8208C134.19 15.0005 134.011 15.2522 133.92 15.54C133.879 15.6897 133.862 15.845 133.87 16ZM146.07 36.83H137.2C137.179 37.3945 137.283 37.9567 137.506 38.4756C137.729 38.9946 138.066 39.4573 138.49 39.83C139.307 40.4838 140.334 40.818 141.38 40.77C142.607 40.788 143.825 40.5707 144.97 40.13L145.44 42.19C144.031 42.7609 142.52 43.0366 141 43C140.11 43.0489 139.219 42.9124 138.384 42.5992C137.549 42.2859 136.788 41.8026 136.15 41.18C135.545 40.5255 135.076 39.7567 134.772 38.9187C134.468 38.0806 134.335 37.1903 134.38 36.3C134.322 34.4923 134.902 32.722 136.02 31.3C136.577 30.6059 137.288 30.0518 138.097 29.6819C138.906 29.312 139.791 29.1367 140.68 29.17C141.524 29.1291 142.364 29.3052 143.12 29.6816C143.877 30.0581 144.524 30.6221 145 31.32C145.811 32.5634 146.219 34.0263 146.17 35.51C146.178 35.9621 146.144 36.414 146.07 36.86V36.83ZM85 14.48C84.6384 14.4893 84.2903 14.6195 84.0112 14.8496C83.7321 15.0798 83.538 15.3968 83.46 15.75C83.4257 15.8975 83.409 16.0486 83.41 16.2V17.31C83.3947 17.4462 83.3947 17.5838 83.41 17.72C83.495 18.074 83.6997 18.3878 83.9895 18.6082C84.2792 18.8287 84.6361 18.9424 85 18.93C86.09 18.93 86.75 18.07 86.75 16.68C86.7 15.47 86.12 14.48 85 14.48ZM97.45 14.31C97.014 14.3281 96.6019 14.5141 96.3 14.8291C95.998 15.1441 95.8296 15.5637 95.83 16H98.83C98.8612 15.7943 98.8484 15.5843 98.7925 15.384C98.7365 15.1836 98.6387 14.9974 98.5054 14.8376C98.3721 14.6779 98.2064 14.5483 98.0193 14.4573C97.8322 14.3663 97.628 14.3161 97.42 14.31H97.45ZM109.08 14.38C107.86 14.38 107.36 15.58 107.36 16.72C107.33 18 108 19 109 19C110 19 110.67 18 110.67 16.65C110.71 15.62 110.23 14.38 109.05 14.38H109.08ZM75.78 18.07C75.7639 18.2052 75.7787 18.3423 75.8233 18.4709C75.8679 18.5996 75.941 18.7164 76.0373 18.8127C76.1336 18.909 76.2504 18.9821 76.3791 19.0267C76.5077 19.0713 76.6448 19.0861 76.78 19.07C77.0781 19.077 77.3709 18.99 77.6168 18.8213C77.8627 18.6526 78.0493 18.4107 78.15 18.13C78.1697 18.0041 78.1697 17.8759 78.15 17.75V16.81C76.92 16.78 75.75 17 75.75 18.07H75.78ZM143.09 14.31C142.654 14.3281 142.242 14.5141 141.94 14.8291C141.638 15.1441 141.47 15.5637 141.47 16H144.47C144.5 15.7946 144.486 15.5852 144.429 15.3855C144.372 15.1858 144.275 15.0002 144.142 14.8408C144.009 14.6815 143.844 14.5518 143.657 14.4604C143.471 14.3689 143.267 14.3177 143.06 14.31H143.09Z" fill="#58595B"/>
</svg>
