<svg width="61" height="58" viewBox="0 0 61 58" fill="none" xmlns="http://www.w3.org/2000/svg">
<path d="M49.9848 41.9562C49.6823 42.038 49.4211 42.228 49.2503 42.4899L46.353 46.9252L52.8316 45.1723L52.6351 41.2388L49.9848 41.9562Z" fill="#D4E1F4"/>
<path d="M36.4933 46.6348C36.2008 46.5238 35.8777 46.5238 35.5852 46.6348L27.5374 49.7008L22.8289 42.49C22.6574 42.2281 22.3962 42.038 22.0937 41.9562L13.7812 39.7065L14.2096 31.1051C14.2253 30.7919 14.1256 30.4845 13.9292 30.2411L8.52608 23.5341L13.9292 16.8279C14.1256 16.5838 14.2253 16.277 14.2096 15.9639L13.9769 11.2959L8.31542 12.8282L8.74385 21.4296C8.75951 21.7428 8.65987 22.0495 8.46345 22.2936L3.0603 28.9999L8.46345 35.7068C8.65987 35.9502 8.75951 36.2577 8.74385 36.5708L8.31542 45.1723L16.6279 47.422C16.9304 47.5038 17.1916 47.6938 17.3631 47.9557L22.0717 55.1666L30.1194 52.1006C30.4119 51.9896 30.7351 51.9896 31.0276 52.1006L39.0753 55.1666L43.0224 49.1222L36.4933 46.6348Z" fill="#EAEAEA"/>
<path d="M23.5227 26.4289C20.6054 26.4289 18.2405 24.0646 18.2405 21.1474C18.2405 18.2302 20.6054 15.8652 23.5227 15.8652C26.4399 15.8652 28.8041 18.2302 28.8041 21.1474C28.8013 24.0632 26.4385 26.426 23.5227 26.4289ZM23.5227 18.4159C22.0146 18.4159 20.7912 19.6393 20.7912 21.1474C20.7912 22.6555 22.0146 23.8782 23.5227 23.8782C25.0307 23.8782 26.2534 22.6555 26.2534 21.1474C26.252 19.6393 25.03 18.4181 23.5227 18.4159Z" fill="#FF6600"/>
<path d="M37.3039 42.4548C34.3874 42.4548 32.0225 40.0898 32.0225 37.1726C32.0225 34.2554 34.3874 31.8911 37.3046 31.8911C40.2212 31.8911 42.5861 34.2561 42.5861 37.1726C42.5826 40.0884 40.2197 42.4512 37.3039 42.4548ZM37.3039 34.4418C35.7959 34.4418 34.5732 35.6645 34.5732 37.1733C34.5732 38.6814 35.7959 39.9041 37.3046 39.9041C38.8127 39.9041 40.0354 38.6814 40.0354 37.1726C40.034 35.6652 38.812 34.4432 37.3039 34.4418Z" fill="#FF6600"/>
<path d="M6.17173 36.9286L5.71625 46.0709C5.68707 46.6702 6.0785 47.2089 6.6571 47.3655L15.4934 49.7568L20.498 57.4217C20.8261 57.9241 21.4595 58.1298 22.0203 57.9163L30.5734 54.6568L39.1272 57.9156C39.6873 58.1291 40.3207 57.9234 40.6488 57.4217L45.6534 49.7575L54.4897 47.3662C55.0691 47.2096 55.4605 46.6709 55.4306 46.0717L54.9751 36.9293L60.7177 29.801C61.0942 29.3341 61.0942 28.6673 60.7177 28.2004L54.9751 21.0721L55.4306 11.9298C55.4598 11.3313 55.0683 10.7925 54.4897 10.6359L45.6534 8.24466L40.6488 0.57763C40.3207 0.0758888 39.6873 -0.12979 39.1265 0.0837174L30.5734 3.34325L22.0196 0.0844291C21.4595 -0.129078 20.8261 0.0766005 20.498 0.57763L15.4934 8.24252L6.6571 10.6338C6.0785 10.7904 5.68707 11.3291 5.71625 11.9277L6.17173 21.07L0.429824 28.1997C0.05334 28.6666 0.05334 29.3334 0.429824 29.8003L6.17173 36.9286ZM8.46337 22.2934C8.6598 22.0493 8.75943 21.7426 8.74378 21.4294L8.31534 12.8279L16.6279 10.5783C16.9303 10.4964 17.1915 10.3064 17.363 10.0445L22.0716 2.83368L30.1194 5.89964C30.4119 6.01067 30.735 6.01067 31.0275 5.89964L39.0753 2.83368L43.7845 10.0445C43.9553 10.3064 44.2165 10.4964 44.519 10.5783L52.8322 12.8279L52.4031 21.4294C52.3874 21.7426 52.487 22.0493 52.6835 22.2934L58.0866 28.9997L52.6835 35.7066C52.487 35.95 52.3874 36.2575 52.4031 36.5706L52.8322 45.1721L44.519 47.4217C44.2165 47.5036 43.9553 47.6936 43.7845 47.9555L39.0753 55.1663L31.0275 52.1004C30.735 51.9893 30.4119 51.9893 30.1194 52.1004L22.0716 55.1663L17.363 47.9555C17.1915 47.6936 16.9303 47.5036 16.6279 47.4217L8.31534 45.1721L8.74378 36.5706C8.75943 36.2575 8.6598 35.95 8.46337 35.7066L3.06023 28.9997L8.46337 22.2934Z" fill="#999999"/>
<path d="M20.8626 43.8904C21.4526 44.2754 22.2433 44.1089 22.6276 43.5189L40.6562 15.8746C40.906 15.4932 40.933 15.0071 40.7273 14.6C40.521 14.1929 40.1132 13.9267 39.6577 13.9025C39.2022 13.8776 38.7681 14.099 38.5197 14.4811L20.4911 42.1254C20.1061 42.7154 20.2726 43.5054 20.8626 43.8904Z" fill="#999999"/>
</svg>
