<svg width="50" height="65" viewBox="0 0 50 65" fill="none" xmlns="http://www.w3.org/2000/svg">
<path d="M21.2425 40.1759C20.8912 40.1765 20.5566 40.0223 20.3287 39.7548L13.9822 32.3229C13.5511 31.8181 13.6108 31.0598 14.1156 30.6287C14.6205 30.1983 15.3788 30.2579 15.8099 30.7621L21.394 37.3017L35.2636 26.018C35.7785 25.599 36.5354 25.6768 36.9538 26.1917C37.3728 26.7066 37.295 27.4635 36.7801 27.8819L21.9994 39.9064C21.7862 40.0807 21.5187 40.1759 21.2425 40.1759Z" fill="#FF6600"/>
<path d="M20.8462 63.3741L24.1033 64.7934C24.4077 64.9262 24.7543 64.9269 25.0593 64.7948L28.7294 63.2098C41.6154 57.798 49.9987 45.1855 50 31.2094V14.7452C50 14.3013 49.7553 13.893 49.3637 13.6845L25.231 0.825324C24.8729 0.634246 24.4439 0.636928 24.0885 0.832028L0.623517 13.6912C0.238679 13.9024 0 14.306 0 14.7452V31.5426C0.0140795 45.3504 8.19489 57.8422 20.8462 63.3741ZM2.40289 15.4565L24.6738 3.25033L47.5971 15.4652V31.2094C47.5944 44.2221 39.7871 55.9636 27.7887 60.9994L27.78 61.0034L24.5847 62.3832L21.8077 61.1717C10.0312 56.0226 2.41562 44.3957 2.40222 31.5426L2.40289 15.4565Z" fill="#C4C4C4"/>
<path d="M32.9378 54.1332L32.9297 54.1366L29.7337 55.5171L26.9567 54.3062C15.1803 49.1572 7.56467 37.5303 7.55126 24.6771V12.6345L2.40222 15.4564V31.5425C2.41563 44.3957 10.0312 56.0226 21.8077 61.1716L24.584 62.3824L27.78 61.002L27.7881 60.9986C34.4389 58.1982 39.9654 53.2597 43.4926 46.9648C40.4823 50.0274 36.8948 52.4638 32.9378 54.1332Z" fill="#EAEAEA"/>
</svg>
